<?xml version="1.0" encoding="utf-8"?>
<!-- Generator: Adobe Illustrator 27.5.0, SVG Export Plug-In . SVG Version: 6.00 Build 0)  -->
<svg version="1.1" xmlns="http://www.w3.org/2000/svg" xmlns:xlink="http://www.w3.org/1999/xlink" x="0px" y="0px"
	 viewBox="0 0 500 500" style="enable-background:new 0 0 500 500;" xml:space="preserve">
<g id="BACKGROUND">
	<rect style="fill:#FFFFFF;" width="500" height="500"/>
</g>
<g id="OBJECTS">
	<g>
		<g>
			<path style="fill:none;stroke:#000000;stroke-miterlimit:10;" d="M220.482,252.973c-13.576-8.47-29.522-13.097-45.523-13.209
				c2.41,11.696,3.626,24.233,6.231,35.887c2.605,11.654,6.941,23.254,14.94,32.12c11.755,13.028,32.173,18.458,49.017,13.537"/>
			<path style="fill:none;stroke:#000000;stroke-miterlimit:10;" d="M201.119,244.305c-0.922-5.129,0.616-10.354,2.279-15.292
				c1.664-4.939,3.496-9.999,3.174-15.2c10.361,2.947,20.246,7.979,28.848,14.463"/>
			<path style="fill:none;stroke:#000000;stroke-miterlimit:10;" d="M248.567,322.151c-8.459,8.973-20.559,15.652-32.89,15.517
				c-9.749-0.107-18.964-4.139-27.945-7.933c-8.981-3.794-18.42-7.484-28.148-6.853c6.711-11.465,17.166-20.486,29.788-24.626"/>
			<path style="fill:none;stroke:#000000;stroke-miterlimit:10;" d="M173.768,306.665c-6.584-3.898-10.436-11.118-13.129-18.279
				c-2.693-7.161-4.613-14.73-8.791-21.14c9.35-0.696,18.847-0.295,28.044,1.534"/>
			<path style="fill:none;stroke:#000000;stroke-miterlimit:10;" d="M156.251,267.212c-6.914-3.362-11.74-10.037-14.604-17.172
				c-2.864-7.135-4.016-14.816-5.41-22.376c-1.394-7.561-3.101-15.21-6.921-21.881c15.669,0.147,31.639,3.762,45.873,10.313"/>
			<path style="fill:none;stroke:#000000;stroke-miterlimit:10;" d="M142.738,206.994c-4.953-11.171-7.62-23.35-7.79-35.569
				c16.805,2.046,33.102,10.538,44.244,23.283"/>
			<path style="fill:none;stroke:#000000;stroke-miterlimit:10;" d="M150.472,175.336c-2.4-10.295-2.87-21.037-1.379-31.503
				c16.174,3.753,30.961,13.852,40.091,27.72"/>
			<path style="fill:none;stroke:#000000;stroke-miterlimit:10;" d="M167.15,151.066c-3.538-9.821-5.387-20.247-5.444-30.685
				c-0.001-0.2,10.63,1.051,11.837,1.36c3.792,0.969,7.516,2.206,11.136,3.694c7.241,2.976,14.071,6.954,20.228,11.789
				c2.709,2.128,5.288,4.421,7.713,6.867"/>
			<path style="fill:none;stroke:#000000;stroke-miterlimit:10;" d="M237.647,70.502c-5.359,1.946-9.996,6.745-12.367,12.933
				c-2.226,5.808-2.667,12.93-1.309,21.168c1.48,8.979,4.645,15.506,9.407,19.402"/>
			<path style="fill:none;stroke:#000000;stroke-miterlimit:10;" d="M231.847,125.876c-6.137-5.021-8.971-13.056-10.261-20.879
				c-1.233-7.479-1.276-15.348,1.436-22.425c2.713-7.078,8.53-13.245,15.911-14.969"/>
			<path style="fill:none;stroke:#000000;stroke-miterlimit:10;" d="M222.529,83.961c-5.055,1.774-9.449,6.19-11.717,11.893
				c-2.207,5.552-2.582,12.158-1.116,19.635c1.217,6.21,4.122,14.805,11.05,20.49"/>
			<path style="fill:none;stroke:#000000;stroke-miterlimit:10;" d="M219.212,137.846c-6.55-5.375-10.259-13.579-11.889-21.893
				c-1.367-6.974-1.382-14.388,1.243-20.992c2.625-6.604,8.182-12.268,15.113-13.843"/>
			<path style="fill:none;stroke:#000000;stroke-miterlimit:10;" d="M207.326,98.13c-6.952-1.725-14.113-2.604-21.275-2.613
				c6.487,11.399,6.116,25.94,12.686,37.291"/>
			<path style="fill:none;stroke:#000000;stroke-miterlimit:10;" d="M197.969,333.713c-6.44,2.693-11.553,7.933-15.284,13.832
				c-3.731,5.899-6.218,12.482-8.68,19.014c5.932-0.678,11.959-0.582,17.922-0.286c5.963,0.296,11.986,0.494,17.862-0.56
				c5.877-1.054,11.664-3.459,15.846-7.72"/>
			<path style="fill:none;stroke:#000000;stroke-miterlimit:10;" d="M192.607,331.793c-2.784,0.48-5.541,1.253-8.263,1.969
				c-2.524,0.664-5.007,1.482-7.428,2.455c-6.628,2.663-12.747,6.498-18.083,11.242c-7.881,7.007-13.887,16.148-17.434,26.575
				c7.783,2.877,14.02,4.565,19.99,5.424c8.17,1.173,15.65,0.688,22.232-1.447c6.857-2.226,12.618-6.281,16.387-11.503"/>
			<path style="fill:none;stroke:#000000;stroke-miterlimit:10;" d="M202.917,366.523c-4.222,6.629-11.075,11.36-18.55,13.786
				c-7.476,2.426-15.543,2.659-23.322,1.54c-7.779-1.119-15.312-3.552-22.65-6.365c3.472-11.46,9.875-21.889,18.835-29.833
				c8.96-7.944,20.15-13.346,31.943-15.421"/>
			<path style="fill:none;stroke:#000000;stroke-miterlimit:10;" d="M169.746,303.431c-2.341-0.39-4.666-0.836-7.037-0.987
				c-2.199-0.141-4.405-0.138-6.605-0.012c-6.326,0.362-12.569,1.728-18.583,3.688c-8.396,2.735-16.509,6.651-24.383,10.605
				c1.711,1.525,3.405,3.079,5.062,4.599c4.668,4.281,9.494,8.709,14.572,12.364c4.366,3.143,9.194,5.773,14.385,7.255
				c4.744,1.354,9.572,1.49,14.417,0.611"/>
			<path style="fill:none;stroke:#000000;stroke-miterlimit:10;" d="M166.886,300.447c-10.086-1.45-20.424,0.218-30.113,3.375
				c-9.689,3.156-18.829,7.767-27.925,12.359c7.461,6.392,14.538,13.729,22.513,19.468c7.975,5.739,17.685,9.889,27.441,8.723"/>
			<path style="fill:none;stroke:#000000;stroke-miterlimit:10;" d="M165.646,382.341c-0.179,5.637,0.333,11.263,1.522,16.764
				c8.372-4.485,15.426-11.5,19.887-19.78"/>
			<path style="fill:none;stroke:#000000;stroke-miterlimit:10;" d="M163.23,382.265c-0.217,6.847,0.557,13.725,2.292,20.353
				c10.901-4.982,19.977-13.93,24.994-24.815"/>
			<path style="fill:none;stroke:#000000;stroke-miterlimit:10;" d="M164.372,397.655c-3.658,2.219-6.528,5.709-7.997,9.728
				c-0.849,2.323-1.254,4.946-0.007,7.21c0.68,1.234,1.824,2.23,3.178,2.621c2.06,0.595,4.336-0.28,5.881-1.767
				c1.545-1.487,2.47-3.499,3.179-5.522c1.14-3.251,1.812-6.666,1.99-10.107"/>
			<path style="fill:none;stroke:#000000;stroke-miterlimit:10;" d="M155.457,410.257c-2.75-3.125-3.008-7.962-1.244-11.733
				c1.764-3.77,5.257-6.527,9.089-8.151"/>
			<path style="fill:none;stroke:#000000;stroke-miterlimit:10;" d="M153.107,401.162c-2.038-2.02-2.791-5.139-2.243-7.955
				c0.548-2.816,2.286-5.317,4.516-7.122c2.23-1.805,4.929-2.959,7.697-3.713"/>
			<path style="fill:none;stroke:#000000;stroke-miterlimit:10;" d="M150.863,393.206c-1.2-2.017-1.836-4.714-1.342-7.009
				c0.494-2.294,1.882-4.383,3.806-5.728"/>
			<path style="fill:none;stroke:#000000;stroke-miterlimit:10;" d="M165.053,416.06c2.108,1.498,5.075,1.681,7.351,0.452
				c2.695-1.456,4.135-4.507,4.83-7.49c1.013-4.346,0.808-8.969-0.585-13.208"/>
			<path style="fill:none;stroke:#000000;stroke-miterlimit:10;" d="M176.039,412.698c2.79,0.747,5.831-0.828,7.468-3.208
				c1.637-2.38,2.09-5.389,2.048-8.277c-0.06-4.03-1.008-8.045-2.757-11.676"/>
			<path style="fill:none;stroke:#000000;stroke-miterlimit:10;" d="M185.053,406.187c2.542,0.343,5.013-1.477,6.107-3.797
				c1.094-2.32,1.061-5.014,0.694-7.553c-0.6-4.154-2.041-8.186-4.21-11.779"/>
			<path style="fill:none;stroke:#000000;stroke-miterlimit:10;" d="M192.169,398.755c1.739-1.148,2.913-3.114,3.1-5.19"/>
			<path style="fill:none;stroke:#000000;stroke-miterlimit:10;" d="M165.4,402.253c-1.329,3.192-2.899,6.284-4.693,9.241"/>
			<path style="fill:none;stroke:#000000;stroke-miterlimit:10;" d="M173.108,398.583c1.095,4.307,0.798,8.957-0.837,13.09"/>
			<path style="fill:none;stroke:#000000;stroke-miterlimit:10;" d="M179.354,393.366c2.255,3.924,2.581,8.899,0.857,13.084"/>
			<path style="fill:none;stroke:#000000;stroke-miterlimit:10;" d="M185.408,386.65c2.266,3.419,3.388,7.583,3.147,11.678"/>
			<path style="fill:none;stroke:#000000;stroke-miterlimit:10;" d="M163.707,393.456c-3.509,1.477-6.331,4.505-7.559,8.109"/>
			<path style="fill:none;stroke:#000000;stroke-miterlimit:10;" d="M163.124,385.344c-4.377,0.763-8.238,3.99-9.765,8.162"/>
			<path style="fill:none;stroke:#000000;stroke-miterlimit:10;" d="M138.394,375.483c12.225-8.473,25.426-14.767,39.73-18.847"/>
			<path style="fill:none;stroke:#000000;stroke-miterlimit:10;" d="M153.94,377.871c-1.353-3.729-1.339-7.936,0.038-11.656
				c-2.754-0.382-5.327-2.335-6.96-4.585"/>
			<path style="fill:none;stroke:#000000;stroke-miterlimit:10;" d="M164.822,380.081c-2.578-6.533-1.705-14.319,2.257-20.119
				c-5.164-1.863-9.371-5.808-9.565-11.294"/>
			<path style="fill:none;stroke:#000000;stroke-miterlimit:10;" d="M168.219,340.54c-0.637,6.597,3.205,13.396,9.184,16.255"/>
			<path style="fill:none;stroke:#000000;stroke-miterlimit:10;" d="M178.986,366.076c-1.528,4.146-0.733,9.065,2.023,12.519"/>
			<path style="fill:none;stroke:#000000;stroke-miterlimit:10;" d="M190.824,374.847c-0.608-1.386-1.222-2.79-1.459-4.285
				c-0.237-1.494-0.059-3.114,0.809-4.353"/>
			<path style="fill:none;stroke:#000000;stroke-miterlimit:10;" d="M184.235,344.733c-3.047-2.211-4.801-6.087-4.453-9.835"/>
			<path style="fill:none;stroke:#000000;stroke-miterlimit:10;" d="M246.433,321.83c-10.545,9.676-27.329,13.632-41.006,9.417
				c-5.283-1.628-10.174-4.296-15.133-6.738c-4.96-2.442-10.114-4.7-15.597-5.409c-5.483-0.71-10.84,0.274-15.113,3.782"/>
			<path style="fill:none;stroke:#000000;stroke-linejoin:bevel;stroke-miterlimit:10;" d="M160.763,321.307
				c4.448-6.57,10.583-12.467,18.275-14.408c2.539-0.64,5.24-0.826,7.768-0.145c2.528,0.681,4.866,2.298,6.073,4.621
				c1.207,2.323,1.122,5.358-0.5,7.413c-1.622,2.055-4.817,2.803-7.031,1.405c-2.214-1.398-2.814-4.916-0.978-6.783
				C176.023,312.996,166.995,315.739,160.763,321.307z"/>
			<path style="fill:none;stroke:#000000;stroke-miterlimit:10;" d="M186.618,311.918c-1.394,0.468-2.559,1.573-3.1,2.94"/>
			<path style="fill:none;stroke:#000000;stroke-miterlimit:10;" d="M175.201,239.84c7.057,5.59,10.405,14.631,12.286,23.435
				c1.881,8.804,2.654,17.933,6.049,26.271c3.838,9.425,10.959,17.387,19.624,22.724c8.665,5.337,18.814,8.099,28.985,8.449"/>
			<path style="fill:none;stroke:#000000;stroke-miterlimit:10;" d="M202.241,303.433c-4.187-4.825-7.438-12.994-5.937-19.426
				c0.748-3.203,3.258-6.185,6.524-6.574c2.498-0.298,5.113,1.068,6.296,3.289c1.183,2.221,0.857,5.153-0.783,7.06
				c-1.641,1.907-4.492,2.667-6.864,1.828c0.197,8.4,4.725,17.283,11.304,22.508"/>
			<path style="fill:none;stroke:#000000;stroke-miterlimit:10;" d="M194.445,274.343c-0.278-1.261-0.806-2.475-1.688-3.711
				c-0.762-1.069-1.619-2.111-2.021-3.361c-0.402-1.25-0.225-2.801,0.812-3.607c1.186-0.923,3.04-0.458,4.04,0.665
				c0.999,1.122,1.314,2.696,1.395,4.197c0.091,1.696-0.112,3.496-0.475,5.154c-0.216,0.986-0.495,1.957-0.835,2.907
				c-0.282,0.788-1.034,1.828-1.129,2.634C194.753,277.444,194.779,275.859,194.445,274.343z"/>
			<path d="M194.304,257.652c0,1.242-1.007,2.248-2.248,2.248c-1.242,0-2.248-1.007-2.248-2.248c0-1.242,1.007-2.248,2.248-2.248
				C193.298,255.403,194.304,256.41,194.304,257.652z"/>
			<path d="M236.289,211.294c0,1.242-1.007,2.248-2.248,2.248c-1.242,0-2.248-1.007-2.248-2.248c0-1.242,1.007-2.248,2.248-2.248
				C235.283,209.046,236.289,210.052,236.289,211.294z"/>
			<path d="M113.913,276.616c0,1.242-1.007,2.248-2.248,2.248s-2.248-1.007-2.248-2.248c0-1.242,1.007-2.248,2.248-2.248
				S113.913,275.374,113.913,276.616z"/>
			<path d="M208.673,347.416c0,1.242-1.007,2.248-2.248,2.248c-1.242,0-2.248-1.007-2.248-2.248c0-1.242,1.007-2.248,2.248-2.248
				C207.667,345.168,208.673,346.174,208.673,347.416z"/>
			<circle cx="188.821" cy="250.236" r="1.717"/>
			<circle cx="226.852" cy="259.857" r="1.717"/>
			<path d="M232.001,250.743c0,0.948-0.768,1.717-1.717,1.717s-1.717-0.769-1.717-1.717c0-0.948,0.768-1.717,1.717-1.717
				S232.001,249.795,232.001,250.743z"/>
			<path d="M235.868,242.014c0,0.948-0.769,1.717-1.717,1.717c-0.948,0-1.717-0.769-1.717-1.717c0-0.948,0.769-1.717,1.717-1.717
				C235.1,240.298,235.868,241.066,235.868,242.014z"/>
			<path d="M222.494,125.876c0,0.948-0.769,1.717-1.717,1.717c-0.948,0-1.717-0.769-1.717-1.717c0-0.948,0.769-1.717,1.717-1.717
				C221.726,124.159,222.494,124.927,222.494,125.876z"/>
			<circle cx="215.674" cy="115.88" r="1.717"/>
			<path d="M216.762,103.089c0,0.948-0.769,1.717-1.717,1.717c-0.948,0-1.717-0.769-1.717-1.717c0-0.948,0.768-1.717,1.717-1.717
				C215.994,101.372,216.762,102.14,216.762,103.089z"/>
			<path d="M121.378,276.018c0,0.948-0.769,1.717-1.717,1.717c-0.948,0-1.717-0.769-1.717-1.717c0-0.948,0.769-1.717,1.717-1.717
				C120.609,274.301,121.378,275.07,121.378,276.018z"/>
			<path d="M79.146,345.168c0,0.948-0.769,1.717-1.717,1.717c-0.948,0-1.717-0.769-1.717-1.717c0-0.948,0.769-1.717,1.717-1.717
				C78.377,343.451,79.146,344.22,79.146,345.168z"/>
			<path d="M72.841,331.588c0,0.948-0.769,1.717-1.717,1.717c-0.948,0-1.717-0.769-1.717-1.717c0-0.948,0.768-1.717,1.717-1.717
				C72.073,329.871,72.841,330.639,72.841,331.588z"/>
			<path d="M85.526,320.531c0,0.948-0.769,1.717-1.717,1.717c-0.948,0-1.717-0.769-1.717-1.717c0-0.948,0.769-1.717,1.717-1.717
				C84.757,318.814,85.526,319.583,85.526,320.531z"/>
			<path d="M102.571,305.705c0,0.948-0.769,1.717-1.717,1.717c-0.948,0-1.717-0.769-1.717-1.717c0-0.948,0.769-1.717,1.717-1.717
				C101.802,303.989,102.571,304.757,102.571,305.705z"/>
			<circle cx="94.588" cy="344.569" r="1.717"/>
			<circle cx="116.109" cy="343.776" r="1.717"/>
			<path d="M129.142,342.853c0,0.948-0.769,1.717-1.717,1.717c-0.948,0-1.717-0.768-1.717-1.717c0-0.948,0.769-1.717,1.717-1.717
				C128.374,341.136,129.142,341.905,129.142,342.853z"/>
			<path d="M87.86,345.168c0,0.948-0.769,1.717-1.717,1.717c-0.948,0-1.717-0.769-1.717-1.717c0-0.948,0.769-1.717,1.717-1.717
				C87.091,343.451,87.86,344.22,87.86,345.168z"/>
			<path d="M80.031,325.211c0,0.948-0.769,1.717-1.717,1.717c-0.948,0-1.717-0.768-1.717-1.717c0-0.948,0.769-1.717,1.717-1.717
				C79.262,323.494,80.031,324.263,80.031,325.211z"/>
			<circle cx="90.992" cy="313.622" r="1.717"/>
			<circle cx="103.747" cy="344.302" r="1.717"/>
			<circle cx="193.701" cy="353.461" r="1.717"/>
			<path d="M200.683,350.898c0,0.948-0.769,1.717-1.717,1.717c-0.948,0-1.717-0.769-1.717-1.717c0-0.948,0.768-1.717,1.717-1.717
				C199.914,349.181,200.683,349.95,200.683,350.898z"/>
			<circle cx="221.863" cy="408.399" r="1.717"/>
			<path d="M213.955,396.16c0,0.948-0.769,1.717-1.717,1.717c-0.948,0-1.717-0.768-1.717-1.717c0-0.948,0.769-1.717,1.717-1.717
				C213.186,394.443,213.955,395.212,213.955,396.16z"/>
			<circle cx="232.615" cy="418.343" r="1.717"/>
			<path d="M185.759,244.748c0,0.591-0.479,1.07-1.07,1.07c-0.591,0-1.07-0.479-1.07-1.07c0-0.591,0.479-1.07,1.07-1.07
				C185.28,243.678,185.759,244.157,185.759,244.748z"/>
			<circle cx="224.101" cy="275.542" r="1.07"/>
			<circle cx="225.171" cy="267.955" r="1.07"/>
			<circle cx="242.146" cy="229.206" r="1.07"/>
			<circle cx="234.152" cy="117.597" r="1.07"/>
			<path d="M185.759,209.046c0,0.591-0.479,1.07-1.07,1.07c-0.591,0-1.07-0.479-1.07-1.07s0.479-1.07,1.07-1.07
				C185.28,207.976,185.759,208.455,185.759,209.046z"/>
			<path d="M189.001,196.261c0,0.591-0.479,1.07-1.07,1.07c-0.591,0-1.07-0.479-1.07-1.07c0-0.591,0.479-1.07,1.07-1.07
				C188.522,195.19,189.001,195.67,189.001,196.261z"/>
			<path d="M193.799,183.215c0,0.591-0.479,1.07-1.07,1.07c-0.591,0-1.07-0.479-1.07-1.07c0-0.591,0.479-1.07,1.07-1.07
				C193.32,182.144,193.799,182.624,193.799,183.215z"/>
			<circle cx="200.612" cy="171.866" r="1.07"/>
			<circle cx="220.025" cy="149.996" r="1.07"/>
			<path d="M231.494,139.846c0,0.591-0.479,1.07-1.07,1.07s-1.07-0.479-1.07-1.07c0-0.591,0.479-1.07,1.07-1.07
				S231.494,139.255,231.494,139.846z"/>
			<path d="M242.059,128.663c0,0.591-0.479,1.07-1.07,1.07c-0.591,0-1.07-0.479-1.07-1.07c0-0.591,0.479-1.07,1.07-1.07
				C241.58,127.592,242.059,128.071,242.059,128.663z"/>
			<path d="M210.814,161.036c0,0.591-0.479,1.07-1.07,1.07c-0.591,0-1.07-0.479-1.07-1.07c0-0.591,0.479-1.07,1.07-1.07
				C210.335,159.966,210.814,160.445,210.814,161.036z"/>
			<circle cx="230.285" cy="109.969" r="1.07"/>
			<path d="M228.43,101.372c0,0.591-0.479,1.07-1.07,1.07c-0.591,0-1.07-0.479-1.07-1.07c0-0.591,0.479-1.07,1.07-1.07
				C227.951,100.301,228.43,100.781,228.43,101.372z"/>
			<circle cx="230.424" cy="81.117" r="1.07"/>
			<circle cx="227.498" cy="91.448" r="1.07"/>
			<circle cx="237.854" cy="235.871" r="1.07"/>
			<circle cx="224.101" cy="283.914" r="1.07"/>
			<path d="M128.629,276.018c0,0.591-0.479,1.07-1.07,1.07s-1.07-0.479-1.07-1.07c0-0.591,0.479-1.07,1.07-1.07
				S128.629,275.427,128.629,276.018z"/>
			<path style="fill:none;stroke:#000000;stroke-miterlimit:10;" d="M248.252,322.466c-13.578-4.29-23.908-17.449-27.343-31.268
				c-3.435-13.819-0.915-28.622,4.718-41.699c5.633-13.078,15.714-25.329,24.737-36.345"/>
			<path style="fill:none;stroke:#000000;stroke-miterlimit:10;" d="M167.263,267.177c-14.54-12.519-23.632-31.16-24.543-50.325
				c11.24,0.054,21.769,2.072,32.066,6.578"/>
			<path style="fill:none;stroke:#000000;stroke-miterlimit:10;" d="M129.646,205.779c19.361,11.393,28.548,35.434,47.893,46.855"/>
			<path style="fill:none;stroke:#000000;stroke-miterlimit:10;" d="M178.966,263.849c-12.324-6.242-19.811-17.623-22.57-30.931
				c6.301-1.646,13.35-1.139,18.962,2.166"/>
			<path style="fill:none;stroke:#000000;stroke-miterlimit:10;" d="M158.795,232.349c-2.751-4.941-5.501-9.882-8.252-14.822"/>
			<path style="fill:none;stroke:#000000;stroke-miterlimit:10;" d="M163.578,232.127c-2.026-4.469-3.889-9.013-5.582-13.62"/>
			<path style="fill:none;stroke:#000000;stroke-miterlimit:10;" d="M168.131,232.533c-1.184-4.208-2.368-8.415-3.552-12.623"/>
			<path style="fill:none;stroke:#000000;stroke-miterlimit:10;" d="M171.797,233.357c-0.355-3.936-0.89-7.856-1.602-11.743"/>
			<path style="fill:none;stroke:#000000;stroke-miterlimit:10;" d="M156.663,235.003c-4.029-1.501-8.057-3.002-12.086-4.504"/>
			<path style="fill:none;stroke:#000000;stroke-miterlimit:10;" d="M158.067,238.909c-3.685,0.197-7.386,0.077-11.05-0.357"/>
			<path style="fill:none;stroke:#000000;stroke-miterlimit:10;" d="M150.761,246.44c3.088-0.746,6.175-1.493,9.263-2.239"/>
			<path style="fill:none;stroke:#000000;stroke-miterlimit:10;" d="M154.277,252.407c3.014-0.97,5.984-2.081,8.894-3.329"/>
			<path style="fill:none;stroke:#000000;stroke-miterlimit:10;" d="M159.381,259.51c2.482-1.748,5.062-3.358,7.723-4.82"/>
			<path style="fill:none;stroke:#000000;stroke-miterlimit:10;" d="M164.266,264.221c2.369-1.736,4.738-3.471,7.106-5.207"/>
			<path style="fill:none;stroke:#000000;stroke-miterlimit:10;" d="M171.742,267.709c1.721-1.669,3.371-3.412,4.941-5.224"/>
			<path style="fill:none;stroke:#000000;stroke-miterlimit:10;" d="M150.77,208.139c-3.923-7.788-6.475-16.265-7.503-24.924
				c3.287,0.524,6.574,1.048,9.862,1.572c2.921,0.466,5.563,1.398,8.304,2.544c6.144,2.569,11.851,6.194,16.748,10.711"/>
			<path style="fill:none;stroke:#000000;stroke-miterlimit:10;" d="M135.143,171.467c10.646,16.641,24.321,31.338,40.154,43.152"/>
			<path style="fill:none;stroke:#000000;stroke-miterlimit:10;" d="M157.435,178.127c-2.269-6.985-3.086-14.438-2.383-21.748
				c12.351,3.545,23.427,10.987,31.031,21.345"/>
			<path style="fill:none;stroke:#000000;stroke-miterlimit:10;" d="M148.998,144.133c8.276,16.705,19.183,32.104,32.196,45.453"/>
			<path style="fill:none;stroke:#000000;stroke-miterlimit:10;" d="M178.314,159.212c-5.666-8.727-8.955-18.982-9.423-29.377
				c13.865,3.483,27.291,10.4,37.807,20.085"/>
			<path style="fill:none;stroke:#000000;stroke-miterlimit:10;" d="M161.753,120.672c10.503,14.407,22.27,27.893,35.12,40.253"/>
			<path style="fill:none;stroke:#000000;stroke-miterlimit:10;" d="M171.509,144.05c3.244,0.243,6.488,0.487,9.731,0.73
				c-0.586-3.897-1.067-7.638-1.653-11.535"/>
			<path style="fill:none;stroke:#000000;stroke-miterlimit:10;" d="M174.27,151.707c4.733,0.151,9.465,0.302,14.198,0.453
				c-0.29-5.083-0.47-10.164-0.759-15.248"/>
			<path style="fill:none;stroke:#000000;stroke-miterlimit:10;" d="M180.579,161.036c5.214-0.254,10.429-0.509,15.643-0.763
				c0.637-5.939,1.167-11.867,1.258-17.839"/>
			<path style="fill:none;stroke:#000000;stroke-miterlimit:10;" d="M154.945,166.77c2.992,0.903,6.022,1.681,9.079,2.331
				c-0.071-3.243-0.093-6.335-0.164-9.578"/>
			<path style="fill:none;stroke:#000000;stroke-miterlimit:10;" d="M157.336,176.889c4.898,0.842,9.796,1.683,14.694,2.525
				c0.557-4.427,1.261-9.422,1.818-13.849"/>
			<path style="fill:none;stroke:#000000;stroke-miterlimit:10;" d="M172.976,188.536c1.876-0.351,3.752-0.701,5.627-1.052
				c0.854-5.174,2.101-10.444,2.955-15.618"/>
			<path style="fill:none;stroke:#000000;stroke-miterlimit:10;" d="M145.619,195.219c2.672,0.077,5.344,0.155,8.015,0.232
				c-0.173-3.418-0.276-7.008-0.45-10.425"/>
			<path style="fill:none;stroke:#000000;stroke-miterlimit:10;" d="M149.186,205.395c4.154-0.626,8.308-1.252,12.462-1.878
				c-0.255-5.387-0.278-11.004-0.532-16.391"/>
			<path style="fill:none;stroke:#000000;stroke-miterlimit:10;" d="M163.256,211.422c2.257-0.18,4.08-0.382,6.281-0.912
				c0.401-6.894,0.602-12.562,0.907-18.444"/>
			<path style="fill:none;stroke:#000000;stroke-miterlimit:10;" d="M155.172,273.464c-7.149-2.116-14.735-3.176-22.179-3.685
				c-8.179-0.559-16.413-0.289-24.539,0.798c-4.062,0.544-8.098,1.291-12.085,2.242c-1.993,0.475-3.975,1.001-5.941,1.578
				c-0.983,0.288-1.963,0.589-2.938,0.903c-0.507,0.163-1.014,0.329-1.519,0.499c-0.196,0.066-1.28,0.438-1.28,0.438
				c7.142,3.744,13.107,9.174,18.914,14.461c5.771,5.255,11.625,10.638,18.659,14.167c1.789,0.898,3.675,1.779,5.639,2.249"/>
			<path style="fill:none;stroke:#000000;stroke-miterlimit:10;" d="M153.877,270.583c-24.931-6.12-51.775-4.174-75.563,5.475
				c18.17,6.514,28.339,25.392,46.286,32.498"/>
			<path style="fill:none;stroke:#000000;stroke-miterlimit:10;" d="M204.225,372.793c4.008-1.444,8.057-2.773,12.14-3.986"/>
			<path style="fill:none;stroke:#000000;stroke-miterlimit:10;" d="M203.256,392.054c4.763-3.519,9.332-7.306,13.982-10.975"/>
			<path style="fill:none;stroke:#000000;stroke-miterlimit:10;" d="M211.383,408.989c4.063-5.615,8.126-11.23,12.189-16.845"/>
			<path style="fill:none;stroke:#000000;stroke-miterlimit:10;" d="M223.054,420.458c2.902-6.604,5.805-13.207,8.707-19.811"/>
			<path style="fill:none;stroke:#000000;stroke-miterlimit:10;" d="M237.616,430.606c2.005-7.031,4.01-14.062,6.015-21.094"/>
			<path d="M221.863,367.413c0,0.472-0.383,0.855-0.855,0.855c-0.472,0-0.855-0.383-0.855-0.855c0-0.472,0.383-0.854,0.855-0.854
				C221.481,366.558,221.863,366.941,221.863,367.413z"/>
			<path d="M199.821,322.244c0,0.472-0.383,0.855-0.855,0.855c-0.472,0-0.855-0.383-0.855-0.855c0-0.472,0.383-0.854,0.855-0.854
				C199.438,321.39,199.821,321.772,199.821,322.244z"/>
			<path d="M212.238,328.407c0,0.472-0.383,0.855-0.855,0.855c-0.472,0-0.855-0.383-0.855-0.855c0-0.472,0.383-0.855,0.855-0.855
				C211.855,327.552,212.238,327.935,212.238,328.407z"/>
			<path d="M205.211,325.903c0,0.472-0.383,0.855-0.855,0.855c-0.472,0-0.855-0.383-0.855-0.855c0-0.472,0.383-0.854,0.855-0.854
				C204.828,325.048,205.211,325.431,205.211,325.903z"/>
			<circle cx="183.518" cy="359.532" r="0.855"/>
			<path d="M219.347,329.261c0,0.472-0.383,0.855-0.855,0.855c-0.472,0-0.855-0.383-0.855-0.855c0-0.472,0.383-0.855,0.855-0.855
				C218.964,328.407,219.347,328.789,219.347,329.261z"/>
			<circle cx="225.636" cy="328.407" r="0.855"/>
			<circle cx="178.979" cy="362.972" r="0.855"/>
			<circle cx="188.569" cy="356.361" r="0.855"/>
			<path d="M221.345,378.126c0,0.472-0.383,0.854-0.855,0.854c-0.472,0-0.855-0.383-0.855-0.854c0-0.472,0.383-0.855,0.855-0.855
				C220.962,377.272,221.345,377.654,221.345,378.126z"/>
			<path d="M226.324,388.685c0,0.472-0.383,0.855-0.855,0.855c-0.472,0-0.855-0.383-0.855-0.855c0-0.472,0.383-0.855,0.855-0.855
				C225.941,387.83,226.324,388.213,226.324,388.685z"/>
			<path d="M221.009,372.793c0,0.472-0.383,0.855-0.855,0.855c-0.472,0-0.855-0.383-0.855-0.855c0-0.472,0.383-0.855,0.855-0.855
				C220.626,371.939,221.009,372.321,221.009,372.793z"/>
			<circle cx="222.718" cy="383.913" r="0.855"/>
			<path d="M229.879,392.489c0,0.472-0.383,0.855-0.855,0.855c-0.472,0-0.854-0.383-0.854-0.855c0-0.472,0.383-0.854,0.854-0.854
				C229.496,391.635,229.879,392.017,229.879,392.489z"/>
			<path d="M237.616,399.908c0,0.472-0.383,0.855-0.855,0.855c-0.472,0-0.854-0.383-0.854-0.855c0-0.472,0.383-0.854,0.854-0.854
				C237.233,399.053,237.616,399.436,237.616,399.908z"/>
			<circle cx="247.288" cy="406.874" r="0.855"/>
			<circle cx="232.615" cy="396.16" r="0.855"/>
			<path d="M242.332,403.108c0,0.472-0.383,0.854-0.855,0.854c-0.472,0-0.855-0.383-0.855-0.854c0-0.472,0.383-0.855,0.855-0.855
				C241.95,402.253,242.332,402.636,242.332,403.108z"/>
			<path style="fill:none;stroke:#000000;stroke-miterlimit:10;" d="M207.798,336.682c-0.367,4.282,1.985,8.556,5.52,11.001
				c3.535,2.445,8.083,3.174,12.332,2.524"/>
			<path style="fill:none;stroke:#000000;stroke-miterlimit:10;" d="M214.336,337.733c0.489,2.658,2.278,5.045,4.692,6.26
				c2.414,1.215,5.397,1.231,7.824,0.042"/>
			<path style="fill:none;stroke:#000000;stroke-miterlimit:10;" d="M152.43,267.807c5.524,1.818,9.882,6.135,13.311,10.832
				c3.429,4.697,6.141,9.893,9.67,14.515c2.471,3.236,5.667,6.35,9.706,6.866"/>
			<path style="fill:none;stroke:#000000;stroke-miterlimit:10;" d="M165.338,278.095c-0.419-4.284-0.358-7.133-0.589-11.32"/>
			<path style="fill:none;stroke:#000000;stroke-miterlimit:10;" d="M170.422,285.74c-0.335-5.954-0.691-12.295-1.026-18.249"/>
			<path style="fill:none;stroke:#000000;stroke-miterlimit:10;" d="M176.085,294.229c-0.433-8.81-0.866-17.62-1.299-26.43"/>
			<path style="fill:none;stroke:#000000;stroke-miterlimit:10;" d="M181.764,298.931c-0.482-8.981-0.773-17.514-1.255-26.495"/>
			<path style="fill:none;stroke:#000000;stroke-miterlimit:10;" d="M90.429,274.397c0.89-0.161,3.266,0.264,3.857,0.948
				c0.592,0.684,0.914,1.557,1.177,2.423c0.647,2.127,1.009,4.341,1.075,6.564"/>
			<path style="fill:none;stroke:#000000;stroke-miterlimit:10;" d="M95.256,276.562c1.094-0.757,2.617-0.676,3.794-0.058
				c1.177,0.619,2.052,1.694,2.729,2.839c2.246,3.795,2.545,7.859,2.822,12.261"/>
			<path style="fill:none;stroke:#000000;stroke-miterlimit:10;" d="M102.153,279.693c1.62-0.737,3.614-0.067,4.875,1.19
				c1.261,1.257,1.925,2.984,2.431,4.69c1.192,4.014,1.701,8.194,2.206,12.35"/>
			<path style="fill:none;stroke:#000000;stroke-miterlimit:10;" d="M108.967,283.544c1.936-0.971,4.406-0.005,5.77,1.676
				c1.364,1.682,1.857,3.894,2.176,6.036c0.566,3.8,0.713,7.648,0.86,11.487"/>
			<path style="fill:none;stroke:#000000;stroke-miterlimit:10;" d="M116.329,288.008c0.984-0.854,2.534-0.836,3.653-0.17
				c1.12,0.665,1.843,1.862,2.208,3.112c0.365,1.25,0.411,2.568,0.455,3.87c0.116,3.455,0.232,6.911,0.349,10.366"/>
			<path style="fill:none;stroke:#000000;stroke-miterlimit:10;" d="M122.015,289.777c2.27-0.645,4.761,0.641,6.115,2.573
				c1.354,1.932,1.767,4.37,1.861,6.728c0.094,2.358-0.092,4.732,0.223,7.07"/>
			<path style="fill:none;stroke:#000000;stroke-miterlimit:10;" d="M129.389,294.367c1.526-0.169,3.263-0.273,4.391,0.768
				c0.723,0.667,1.024,1.668,1.23,2.63c0.454,2.114,0.597,4.295,0.424,6.45"/>
			<path style="fill:none;stroke:#000000;stroke-miterlimit:10;" d="M91.689,280.377c-0.14-1.166-0.28-2.331-0.42-3.497"/>
			<path style="fill:none;stroke:#000000;stroke-miterlimit:10;" d="M99.921,287.137c-0.278-2.805-0.278-4.47-0.556-6.76"/>
			<path style="fill:none;stroke:#000000;stroke-miterlimit:10;" d="M107.726,294.658c-0.444-2.994-0.852-6.354-1.416-9.483"/>
			<path style="fill:none;stroke:#000000;stroke-miterlimit:10;" d="M114.391,299.919c-0.516-3.702-0.642-6.711-1.021-10.31"/>
			<path style="fill:none;stroke:#000000;stroke-miterlimit:10;" d="M120.245,303.601c-0.278-3.182-0.555-6.365-0.833-9.547"/>
			<path style="fill:none;stroke:#000000;stroke-miterlimit:10;" d="M126.504,306.497c-0.196-3.389-0.391-6.777-0.587-10.166"/>
			<path style="fill:none;stroke:#000000;stroke-miterlimit:10;" d="M135.357,297.73c0.772-0.763,1.988-0.988,3.026-0.672
				c1.038,0.315,1.889,1.119,2.39,2.081c0.501,0.962,0.674,2.071,0.634,3.155"/>
			<path style="fill:none;stroke:#000000;stroke-miterlimit:10;" d="M164.748,297.161c-4.725,1.094-11.766,0.913-17.468-1.376
				c-4.696-1.885-9.791-4.721-12.32-9.403c-1.206-2.232-1.602-4.947-0.813-7.358c1.362-4.158,6.006-6.163,10.065-4.722
				c2.221,0.788,4.068,2.671,4.633,4.959c0.565,2.288-0.262,4.907-2.151,6.316c4.077,5.032,10.362,8.431,16.803,9.112"/>
			<path style="fill:none;stroke:#000000;stroke-miterlimit:10;" d="M147.281,285.065c-1.818,1.85-4.27,1.543-5.807,0.297"/>
			<path style="fill:none;stroke:#000000;stroke-miterlimit:10;" d="M109.58,316.307c18.08-2.127,36.406-2.157,54.494-0.091"/>
			<path style="fill:none;stroke:#000000;stroke-miterlimit:10;" d="M118.813,321.885c2.565-1.87,4.353-4.361,7.751-7.047"/>
			<path style="fill:none;stroke:#000000;stroke-miterlimit:10;" d="M124.979,327.552c5.388-4.864,8.795-7.94,14.183-12.804"/>
			<path style="fill:none;stroke:#000000;stroke-miterlimit:10;" d="M132.098,333.195c7.327-6.63,12.776-11.561,20.104-18.191"/>
			<path style="fill:none;stroke:#000000;stroke-miterlimit:10;" d="M139.676,337.94c8.747-8.081,14.862-13.731,23.609-21.813"/>
			<path style="fill:none;stroke:#000000;stroke-miterlimit:10;" d="M150.083,341.636c7.075-6.757,11.989-11.45,19.064-18.206"/>
			<path style="fill:none;stroke:#000000;stroke-miterlimit:10;" d="M161.283,341.605c6.358-6.053,10.113-9.628,16.471-15.682"/>
			<path style="fill:none;stroke:#000000;stroke-miterlimit:10;" d="M211.387,225.375c0.003,0.201,0.002,0.402-0.004,0.602
				c-0.057,1.939-0.825,3.784-0.559,5.736c0.324,2.374,2.89,3.766,4.916,2.248c2.175-1.63,1.194-5.256,0.273-7.314
				c-1.177-2.63-3.212-4.873-5.732-6.274c0.479,0.267,0.753,2.17,0.855,2.679C211.29,223.818,211.374,224.596,211.387,225.375z"/>
			<path style="fill:none;stroke:#000000;stroke-miterlimit:10;" d="M220.161,252.829c-0.968-10.309,3.255-20.974,11.017-27.826"/>
			<path style="fill:none;stroke:#000000;stroke-miterlimit:10;" d="M220.648,244.404c-5.999-3.392-12.847-5.266-19.737-5.403"/>
			<path style="fill:none;stroke:#000000;stroke-miterlimit:10;" d="M210.725,240.272c3.402-3.627,8.405-5.695,13.376-5.53"/>
			<path style="fill:none;stroke:#000000;stroke-miterlimit:10;" d="M212.564,370.083c-1.477,1.889-1.876,4.566-1.015,6.804
				c0.862,2.238,2.953,3.956,5.316,4.367"/>
			<path style="fill:none;stroke:#000000;stroke-miterlimit:10;" d="M216.365,381.77c-1.181,2.308-1.634,5.428-0.208,7.594
				c1.426,2.165,4.06,3.474,6.646,3.301"/>
			<path style="fill:none;stroke:#000000;stroke-miterlimit:10;" d="M222.204,394.193c-0.633,2.456,0.33,5.247,2.343,6.789
				c2.013,1.543,5.119,1.242,7.325-0.008"/>
			<path style="fill:none;stroke:#000000;stroke-miterlimit:10;" d="M231.873,400.974c-0.396,3.052,0.454,7.323,3.037,8.998
				c2.583,1.675,6.129,1.721,8.754,0.114"/>
			<path style="fill:none;stroke:#000000;stroke-miterlimit:10;" d="M186.372,95.429c5.232,2.744,9.137,7.53,12.004,12.696
				c2.867,5.165,4.823,10.775,7.128,16.214c2.543,6.002,6.004,12.09,11.795,15.507"/>
			<path style="fill:none;stroke:#000000;stroke-miterlimit:10;" d="M214.372,142.484c-6.527-4.102-11.776-10.205-14.855-17.271
				c-2.141-4.913-3.234-10.206-4.851-15.315c-1.617-5.109-3.874-10.206-7.814-13.839c6.975,1.754,13.781,4.23,19.747,8.245"/>
			<path style="fill:none;stroke:#000000;stroke-miterlimit:10;" d="M208.683,342.626c2.021-1.13,4.042-2.259,6.062-3.389"/>
			<path style="fill:none;stroke:#000000;stroke-miterlimit:10;" d="M214.083,348.364c1.163-1.8,2.327-3.599,3.49-5.399"/>
			<path style="fill:none;stroke:#000000;stroke-miterlimit:10;" d="M219.93,350.387c0.769-1.738,1.417-3.53,1.939-5.358"/>
			<path style="fill:none;stroke:#000000;stroke-miterlimit:10;" d="M245.541,217.297c0.337-3.679-0.567-7.438-2.411-10.639
				c-1.502-2.607-3.661-4.886-6.352-6.233c-2.691-1.347-5.933-1.695-8.752-0.643c-2.819,1.052-5.112,3.589-5.576,6.562
				c-0.465,2.973,1.092,6.233,3.827,7.487c2.735,1.255,6.408,0.149,7.765-2.537"/>
			<path style="fill:none;stroke:#000000;stroke-miterlimit:10;" d="M179.366,232.085c0.749-2.007,2.655-3.417,4.704-4.043
				c2.049-0.626,4.24-0.57,6.374-0.384"/>
			<path style="fill:none;stroke:#000000;stroke-miterlimit:10;" d="M183.825,227.89c-0.785-1.578-1.301-3.316-1.286-5.079
				s0.594-3.551,1.778-4.856c1.184-1.305,3.003-2.069,4.745-1.801c1.742,0.267,3.311,1.648,3.616,3.384
				c0.242,1.375-0.39,2.92-1.635,3.551c-1.245,0.632-3.005,0.108-3.536-1.183"/>
			<path style="fill:none;stroke:#000000;stroke-miterlimit:10;" d="M189.063,216.01c-1.306-5.532-0.78-11.479,1.476-16.696
				c3.636-8.409,12.763-16.469,22.509-14.1"/>
			<path style="fill:none;stroke:#000000;stroke-miterlimit:10;" d="M201.394,191.171c2.347-2.162,5.917-2.895,8.926-1.832"/>
			<path style="fill:none;stroke:#000000;stroke-miterlimit:10;" d="M245.359,151.655c-2.063-2.142-5.364-2.997-8.208-2.126
				c-2.844,0.871-5.099,3.429-5.608,6.359c-0.509,2.93,0.752,6.098,3.135,7.878"/>
			<path style="fill:none;stroke:#000000;stroke-miterlimit:10;" d="M231.19,157.281c-3.998-0.478-8.174,1.875-9.837,5.541
				c-1.663,3.667-0.682,8.358,2.31,11.051"/>
			<path style="fill:none;stroke:#000000;stroke-miterlimit:10;" d="M220.278,166.066c-3.551,0.623-6.637,3.388-7.645,6.849
				c-1.008,3.461,0.111,7.451,2.772,9.883"/>
			<path style="fill:none;stroke:#000000;stroke-miterlimit:10;" d="M216.11,179.065c-1.329-2.066-1.444-4.854-0.289-7.022"/>
			<path style="fill:none;stroke:#000000;stroke-miterlimit:10;" d="M224.505,169.786c-0.733-1.131-1.051-2.524-0.883-3.861
				c0.169-1.337,0.824-2.607,1.815-3.52"/>
			<path style="fill:none;stroke:#000000;stroke-miterlimit:10;" d="M234.46,159.934c-0.65-1.112-0.877-2.465-0.626-3.729
				c0.251-1.264,0.977-2.427,2.002-3.207"/>
			<path style="fill:none;stroke:#000000;stroke-miterlimit:10;" d="M102.79,293.596c-20.194,12.168-35.827,31.82-43.21,54.207
				c14.22,3.092,27.997,5.297,40.99,6.562c8.515,0.829,18.535,1.507,28.279,0.253c9.589-1.233,19.087-4.917,26.058-10.11"/>
			<path style="fill:none;stroke:#000000;stroke-miterlimit:10;" d="M101.543,291.526c-21.469,12.935-37.862,34.06-45.06,58.069
				c14.275,3.198,29.293,5.759,43.853,7.175c9.583,0.932,19.272,1.473,28.822,0.245s19.471-4.818,27.193-10.57"/>
			<path style="fill:none;stroke:#000000;stroke-miterlimit:10;" d="M56.424,349.691c16.619-13.377,35.656-23.742,55.911-30.439"/>
			<path style="fill:none;stroke:#000000;stroke-miterlimit:10;" d="M81.028,332.983c-1.2,3.82-2.4,7.639-3.599,11.459"/>
			<path style="fill:none;stroke:#000000;stroke-miterlimit:10;" d="M90.145,328.279c-1.334,5.341-2.668,10.682-4.001,16.024"/>
			<path style="fill:none;stroke:#000000;stroke-miterlimit:10;" d="M97.643,324.906c-1.018,6.214-2.036,12.428-3.054,18.642"/>
			<path style="fill:none;stroke:#000000;stroke-miterlimit:10;" d="M108.527,320.454c-1.311,7.704-2.906,15.359-4.78,22.945"/>
			<path style="fill:none;stroke:#000000;stroke-miterlimit:10;" d="M118.722,325.211c-0.871,6.188-1.742,12.377-2.613,18.565"/>
			<path style="fill:none;stroke:#000000;stroke-miterlimit:10;" d="M80.944,332.754c-3.477-0.687-7.011-1.078-10.554-1.167"/>
			<path style="fill:none;stroke:#000000;stroke-miterlimit:10;" d="M90.344,328.074c-4-1.249-8.069-2.276-12.183-3.074"/>
			<path style="fill:none;stroke:#000000;stroke-miterlimit:10;" d="M98.174,324.595c-4.788-1.411-9.576-2.822-14.365-4.233"/>
			<path style="fill:none;stroke:#000000;stroke-miterlimit:10;" d="M108.664,320.531c-5.703-2.676-11.578-4.985-17.577-6.909"/>
			<path style="fill:none;stroke:#000000;stroke-miterlimit:10;" d="M114.38,313.116c-4.509-2.47-9.017-4.941-13.526-7.411"/>
			<path style="fill:none;stroke:#000000;stroke-miterlimit:10;" d="M128.563,333.407c-0.379,3.009-0.758,6.019-1.137,9.028"/>
		</g>
		<path style="fill:none;stroke:#000000;stroke-miterlimit:10;" d="M250.364,213.154c10.78,9.46,20.688,22.041,27.354,34.766
			c5.22,9.964,8.859,20.97,8.871,32.218c0.022,19.98-15.544,41.173-36.225,42.195c-21.408-1.613-36.248-22.215-36.225-42.195
			c0.012-11.248,3.652-22.254,8.871-32.218C229.677,235.195,239.584,222.614,250.364,213.154z"/>
		<path style="fill:none;stroke:#000000;stroke-miterlimit:10;" d="M280.247,252.973c13.576-8.47,29.522-13.097,45.523-13.209
			c-2.41,11.696-3.626,24.233-6.231,35.887c-2.605,11.654-6.941,23.254-14.94,32.12c-11.755,13.028-32.173,18.458-49.017,13.537"/>
		<path style="fill:none;stroke:#000000;stroke-miterlimit:10;" d="M299.61,244.305c0.922-5.129-0.616-10.354-2.279-15.292
			s-3.496-9.999-3.174-15.2c-10.361,2.947-20.246,7.979-28.848,14.463"/>
		<path style="fill:none;stroke:#000000;stroke-miterlimit:10;" d="M324.694,239.523c4.491-27.621-3.261-57.007-20.792-78.819
			c-16.137-20.077-38.712-35.55-53.537-56.433c-15.641,20.793-37.4,36.357-53.537,56.433
			c-17.531,21.812-25.284,51.198-20.792,78.819"/>
		<path style="fill:none;stroke:#000000;stroke-miterlimit:10;" d="M252.209,322.187c8.459,8.973,20.512,15.616,32.843,15.481
			c9.749-0.107,18.964-4.139,27.945-7.933c8.981-3.794,18.42-7.484,28.148-6.853c-6.711-11.465-17.166-20.486-29.788-24.626"/>
		<path style="fill:none;stroke:#000000;stroke-miterlimit:10;" d="M326.96,306.665c6.584-3.898,10.436-11.118,13.129-18.279
			c2.693-7.161,4.613-14.73,8.79-21.14c-9.35-0.696-18.847-0.295-28.044,1.534"/>
		<path style="fill:none;stroke:#000000;stroke-miterlimit:10;" d="M344.478,267.212c6.914-3.362,11.74-10.037,14.604-17.172
			c2.864-7.135,4.016-14.816,5.41-22.376c1.394-7.561,3.101-15.21,6.921-21.881c-15.669,0.147-31.639,3.762-45.873,10.313"/>
		<path style="fill:none;stroke:#000000;stroke-miterlimit:10;" d="M357.991,206.994c4.953-11.171,7.62-23.35,7.79-35.569
			c-16.805,2.046-33.102,10.538-44.245,23.283"/>
		<path style="fill:none;stroke:#000000;stroke-miterlimit:10;" d="M350.257,175.336c2.4-10.295,2.87-21.037,1.379-31.503
			c-16.175,3.753-30.961,13.852-40.091,27.72"/>
		<path style="fill:none;stroke:#000000;stroke-miterlimit:10;" d="M333.579,151.066c3.538-9.821,5.387-20.247,5.444-30.685
			c0.001-0.2-10.63,1.051-11.837,1.36c-3.792,0.969-7.516,2.206-11.136,3.694c-7.241,2.976-14.071,6.954-20.228,11.789
			c-2.709,2.128-5.288,4.421-7.713,6.867"/>
		<path style="fill:none;stroke:#000000;stroke-miterlimit:10;" d="M257.22,112.685c7.05-8.01,9.898-19.235,8.753-29.844
			c-1.145-10.609-6.198-22.852-16.413-30.004c-8.688,7.967-13.66,19.395-14.805,30.004c-1.145,10.609,1.703,21.834,8.753,29.844"/>
		<path style="fill:none;stroke:#000000;stroke-miterlimit:10;" d="M263.082,70.502c5.359,1.946,9.995,6.745,12.367,12.933
			c2.226,5.808,2.667,12.93,1.309,21.168c-1.48,8.979-4.645,15.506-9.407,19.402"/>
		<path style="fill:none;stroke:#000000;stroke-miterlimit:10;" d="M268.882,125.876c6.137-5.021,8.971-13.056,10.261-20.879
			c1.233-7.479,1.276-15.348-1.436-22.425c-2.712-7.078-8.53-13.245-15.91-14.969"/>
		<path style="fill:none;stroke:#000000;stroke-miterlimit:10;" d="M278.2,83.961c5.055,1.774,9.449,6.19,11.717,11.893
			c2.207,5.552,2.582,12.158,1.116,19.635c-1.217,6.21-4.122,14.805-11.05,20.49"/>
		<path style="fill:none;stroke:#000000;stroke-miterlimit:10;" d="M281.516,137.846c6.55-5.375,10.259-13.579,11.889-21.893
			c1.367-6.974,1.383-14.388-1.243-20.992c-2.625-6.604-8.182-12.268-15.113-13.843"/>
		<path style="fill:none;stroke:#000000;stroke-miterlimit:10;" d="M293.403,98.13c6.952-1.725,14.113-2.604,21.275-2.613
			c-6.487,11.399-6.116,25.94-12.686,37.291"/>
		<path style="fill:none;stroke:#000000;stroke-miterlimit:10;" d="M269.09,334.3c5.442,8.108,7.869,18.212,4.853,27.5
			c-1.801,5.546-5.389,10.376-9.596,14.413c-4.207,4.037-9.042,7.353-13.851,10.649c-4.81-3.296-9.907-6.612-14.114-10.649
			c-4.207-4.037-7.796-8.867-9.596-14.413c-3.016-9.288-0.589-19.392,4.853-27.5"/>
		<path style="fill:none;stroke:#000000;stroke-miterlimit:10;" d="M302.76,333.713c6.44,2.693,11.553,7.933,15.284,13.832
			c3.731,5.899,6.218,12.482,8.68,19.014c-5.932-0.678-11.959-0.582-17.922-0.286c-5.963,0.296-11.986,0.494-17.862-0.56
			c-5.877-1.054-11.664-3.459-15.846-7.72"/>
		<path style="fill:none;stroke:#000000;stroke-miterlimit:10;" d="M308.122,331.793c2.784,0.48,5.541,1.253,8.263,1.969
			c2.524,0.664,5.007,1.482,7.428,2.455c6.628,2.663,12.747,6.498,18.083,11.242c7.881,7.007,13.887,16.148,17.434,26.575
			c-7.783,2.877-14.021,4.565-19.991,5.424c-8.17,1.173-15.65,0.688-22.232-1.447c-6.857-2.226-12.618-6.281-16.387-11.503"/>
		<path style="fill:none;stroke:#000000;stroke-miterlimit:10;" d="M297.812,366.523c4.222,6.629,11.075,11.36,18.55,13.786
			c7.476,2.426,15.543,2.659,23.322,1.54c7.779-1.119,15.312-3.552,22.65-6.365c-3.472-11.46-9.875-21.889-18.835-29.833
			c-8.96-7.944-20.15-13.346-31.943-15.421"/>
		<path style="fill:none;stroke:#000000;stroke-miterlimit:10;" d="M330.982,303.431c2.341-0.39,4.666-0.836,7.037-0.987
			c2.199-0.141,4.405-0.138,6.604-0.012c6.326,0.362,12.569,1.728,18.583,3.688c8.396,2.735,16.509,6.651,24.383,10.605
			c-1.711,1.525-3.405,3.079-5.062,4.599c-4.668,4.281-9.494,8.709-14.572,12.364c-4.366,3.143-9.194,5.773-14.385,7.255
			c-4.744,1.354-9.572,1.49-14.417,0.611"/>
		<path style="fill:none;stroke:#000000;stroke-miterlimit:10;" d="M333.843,300.447c10.086-1.45,20.424,0.218,30.113,3.375
			s18.828,7.767,27.925,12.359c-7.461,6.392-14.538,13.729-22.513,19.468c-7.975,5.739-17.685,9.889-27.441,8.723"/>
		<path style="fill:none;stroke:#000000;stroke-miterlimit:10;" d="M307.081,375.841c1.268,10.699-1.767,21.642-7.272,30.904
			c-5.504,9.262-13.363,16.95-21.992,23.403s-18.056,11.744-27.453,17.015c-9.397-5.271-18.824-10.563-27.453-17.015
			c-8.629-6.452-16.487-14.141-21.992-23.403c-5.504-9.262-8.539-20.205-7.272-30.904"/>
		<path style="fill:none;stroke:#000000;stroke-miterlimit:10;" d="M335.083,382.341c0.179,5.637-0.333,11.263-1.522,16.764
			c-8.372-4.485-15.426-11.5-19.887-19.78"/>
		<path style="fill:none;stroke:#000000;stroke-miterlimit:10;" d="M337.499,382.265c0.217,6.847-0.557,13.725-2.292,20.353
			c-10.901-4.982-19.977-13.93-24.994-24.815"/>
		<path style="fill:none;stroke:#000000;stroke-miterlimit:10;" d="M336.357,397.655c3.658,2.219,6.528,5.709,7.997,9.728
			c0.849,2.323,1.254,4.946,0.007,7.21c-0.68,1.234-1.824,2.23-3.178,2.621c-2.06,0.595-4.336-0.28-5.881-1.767
			s-2.47-3.499-3.179-5.522c-1.14-3.251-1.812-6.666-1.99-10.107"/>
		<path style="fill:none;stroke:#000000;stroke-miterlimit:10;" d="M345.272,410.257c2.75-3.125,3.008-7.962,1.244-11.733
			c-1.764-3.77-5.257-6.527-9.089-8.151"/>
		<path style="fill:none;stroke:#000000;stroke-miterlimit:10;" d="M347.622,401.162c2.038-2.02,2.791-5.139,2.243-7.955
			c-0.548-2.816-2.286-5.317-4.516-7.122c-2.23-1.805-4.929-2.959-7.697-3.713"/>
		<path style="fill:none;stroke:#000000;stroke-miterlimit:10;" d="M349.865,393.206c1.2-2.017,1.836-4.714,1.342-7.009
			c-0.494-2.294-1.882-4.383-3.806-5.728"/>
		<path style="fill:none;stroke:#000000;stroke-miterlimit:10;" d="M335.676,416.06c-2.108,1.498-5.075,1.681-7.351,0.452
			c-2.695-1.456-4.135-4.507-4.83-7.49c-1.013-4.346-0.808-8.969,0.585-13.208"/>
		<path style="fill:none;stroke:#000000;stroke-miterlimit:10;" d="M324.69,412.698c-2.79,0.747-5.831-0.828-7.468-3.208
			c-1.637-2.38-2.09-5.389-2.048-8.277c0.06-4.03,1.008-8.045,2.757-11.676"/>
		<path style="fill:none;stroke:#000000;stroke-miterlimit:10;" d="M315.676,406.187c-2.542,0.343-5.013-1.477-6.107-3.797
			c-1.094-2.32-1.061-5.014-0.694-7.553c0.6-4.154,2.041-8.186,4.21-11.779"/>
		<path style="fill:none;stroke:#000000;stroke-miterlimit:10;" d="M308.56,398.755c-1.739-1.148-2.913-3.114-3.1-5.19"/>
		<path style="fill:none;stroke:#000000;stroke-miterlimit:10;" d="M335.329,402.253c1.329,3.192,2.899,6.284,4.693,9.241"/>
		<path style="fill:none;stroke:#000000;stroke-miterlimit:10;" d="M327.621,398.583c-1.095,4.307-0.798,8.957,0.837,13.09"/>
		<path style="fill:none;stroke:#000000;stroke-miterlimit:10;" d="M321.375,393.366c-2.255,3.924-2.581,8.899-0.857,13.084"/>
		<path style="fill:none;stroke:#000000;stroke-miterlimit:10;" d="M315.321,386.65c-2.266,3.419-3.388,7.583-3.147,11.678"/>
		<path style="fill:none;stroke:#000000;stroke-miterlimit:10;" d="M337.022,393.456c3.509,1.477,6.331,4.505,7.559,8.109"/>
		<path style="fill:none;stroke:#000000;stroke-miterlimit:10;" d="M337.605,385.344c4.376,0.763,8.238,3.99,9.765,8.162"/>
		<path style="fill:none;stroke:#000000;stroke-miterlimit:10;" d="M362.335,375.483c-12.225-8.473-25.426-14.767-39.73-18.847"/>
		<path style="fill:none;stroke:#000000;stroke-miterlimit:10;" d="M346.789,377.871c1.353-3.729,1.339-7.936-0.038-11.656
			c2.754-0.382,5.327-2.335,6.96-4.585"/>
		<path style="fill:none;stroke:#000000;stroke-miterlimit:10;" d="M335.906,380.081c2.578-6.533,1.705-14.319-2.256-20.119
			c5.164-1.863,9.37-5.808,9.565-11.294"/>
		<path style="fill:none;stroke:#000000;stroke-miterlimit:10;" d="M332.51,340.54c0.637,6.597-3.205,13.396-9.184,16.255"/>
		<path style="fill:none;stroke:#000000;stroke-miterlimit:10;" d="M321.743,366.076c1.528,4.146,0.733,9.065-2.023,12.519"/>
		<path style="fill:none;stroke:#000000;stroke-miterlimit:10;" d="M309.905,374.847c0.608-1.386,1.222-2.79,1.459-4.285
			c0.237-1.494,0.059-3.114-0.809-4.353"/>
		<path style="fill:none;stroke:#000000;stroke-miterlimit:10;" d="M316.493,344.733c3.047-2.211,4.801-6.087,4.453-9.835"/>
		<path style="fill:none;stroke:#000000;stroke-miterlimit:10;" d="M254.296,321.83c10.545,9.676,27.329,13.632,41.006,9.417
			c5.283-1.628,10.174-4.296,15.133-6.738c4.96-2.442,10.114-4.7,15.597-5.409c5.483-0.71,10.84,0.274,15.113,3.782"/>
		<path style="fill:none;stroke:#000000;stroke-linejoin:bevel;stroke-miterlimit:10;" d="M339.966,321.307
			c-4.448-6.57-10.583-12.467-18.276-14.408c-2.539-0.64-5.24-0.826-7.768-0.145c-2.528,0.681-4.866,2.298-6.073,4.621
			c-1.207,2.323-1.122,5.358,0.5,7.413c1.622,2.055,4.817,2.803,7.031,1.405c2.214-1.398,2.814-4.916,0.978-6.783
			C324.706,312.996,333.733,315.739,339.966,321.307z"/>
		<path style="fill:none;stroke:#000000;stroke-miterlimit:10;" d="M314.111,311.918c1.393,0.468,2.559,1.573,3.1,2.94"/>
		<path style="fill:none;stroke:#000000;stroke-miterlimit:10;" d="M325.528,239.84c-7.057,5.59-10.405,14.631-12.286,23.435
			c-1.881,8.804-2.654,17.933-6.049,26.271c-3.838,9.425-10.959,17.387-19.624,22.724c-8.665,5.337-18.814,8.099-28.985,8.449"/>
		<path style="fill:none;stroke:#000000;stroke-miterlimit:10;" d="M298.488,303.433c4.187-4.825,7.438-12.994,5.937-19.426
			c-0.748-3.203-3.258-6.185-6.524-6.574c-2.498-0.298-5.113,1.068-6.296,3.289c-1.183,2.221-0.857,5.153,0.784,7.06
			c1.641,1.907,4.492,2.667,6.864,1.828c-0.197,8.4-4.725,17.283-11.304,22.508"/>
		<path style="fill:none;stroke:#000000;stroke-miterlimit:10;" d="M306.284,274.343c0.278-1.261,0.806-2.475,1.688-3.711
			c0.762-1.069,1.619-2.111,2.021-3.361c0.402-1.25,0.225-2.801-0.812-3.607c-1.186-0.923-3.04-0.458-4.04,0.665
			c-0.999,1.122-1.314,2.696-1.395,4.197c-0.091,1.696,0.112,3.496,0.475,5.154c0.216,0.986,0.495,1.957,0.835,2.907
			c0.282,0.788,1.034,1.828,1.128,2.634C305.976,277.444,305.95,275.859,306.284,274.343z"/>
		<path d="M306.425,257.652c0,1.242,1.007,2.248,2.248,2.248c1.242,0,2.248-1.007,2.248-2.248c0-1.242-1.007-2.248-2.248-2.248
			C307.431,255.403,306.425,256.41,306.425,257.652z"/>
		<path d="M264.44,211.294c0,1.242,1.007,2.248,2.248,2.248c1.242,0,2.248-1.007,2.248-2.248c0-1.242-1.007-2.248-2.248-2.248
			C265.446,209.046,264.44,210.052,264.44,211.294z"/>
		<path d="M386.815,276.616c0,1.242,1.007,2.248,2.248,2.248c1.242,0,2.248-1.007,2.248-2.248c0-1.242-1.007-2.248-2.248-2.248
			C387.822,274.368,386.815,275.374,386.815,276.616z"/>
		<circle cx="294.304" cy="347.416" r="2.248"/>
		<circle cx="311.908" cy="250.236" r="1.717"/>
		<circle cx="273.877" cy="259.857" r="1.717"/>
		<path d="M268.727,250.743c0,0.948,0.769,1.717,1.717,1.717c0.948,0,1.717-0.769,1.717-1.717c0-0.948-0.769-1.717-1.717-1.717
			C269.496,249.026,268.727,249.795,268.727,250.743z"/>
		<path d="M264.861,242.014c0,0.948,0.769,1.717,1.717,1.717c0.948,0,1.717-0.769,1.717-1.717c0-0.948-0.769-1.717-1.717-1.717
			C265.629,240.298,264.861,241.066,264.861,242.014z"/>
		<circle cx="279.951" cy="125.876" r="1.717"/>
		<circle cx="285.054" cy="115.88" r="1.717"/>
		<path d="M283.967,103.089c0,0.948,0.769,1.717,1.717,1.717s1.717-0.769,1.717-1.717c0-0.948-0.768-1.717-1.717-1.717
			S283.967,102.14,283.967,103.089z"/>
		<path d="M379.351,276.018c0,0.948,0.768,1.717,1.717,1.717c0.948,0,1.717-0.769,1.717-1.717c0-0.948-0.768-1.717-1.717-1.717
			C380.119,274.301,379.351,275.07,379.351,276.018z"/>
		<path d="M421.583,345.168c0,0.948,0.769,1.717,1.717,1.717c0.948,0,1.717-0.769,1.717-1.717c0-0.948-0.768-1.717-1.717-1.717
			C422.352,343.451,421.583,344.22,421.583,345.168z"/>
		<path d="M427.887,331.588c0,0.948,0.769,1.717,1.717,1.717c0.948,0,1.717-0.769,1.717-1.717c0-0.948-0.769-1.717-1.717-1.717
			C428.656,329.871,427.887,330.639,427.887,331.588z"/>
		<path d="M415.203,320.531c0,0.948,0.769,1.717,1.717,1.717c0.948,0,1.717-0.769,1.717-1.717c0-0.948-0.769-1.717-1.717-1.717
			C415.971,318.814,415.203,319.583,415.203,320.531z"/>
		<circle cx="399.875" cy="305.705" r="1.717"/>
		<circle cx="406.141" cy="344.569" r="1.717"/>
		<path d="M382.903,343.776c0,0.948,0.769,1.717,1.717,1.717c0.948,0,1.717-0.769,1.717-1.717c0-0.948-0.769-1.717-1.717-1.717
			C383.671,342.059,382.903,342.828,382.903,343.776z"/>
		<circle cx="373.303" cy="342.853" r="1.717"/>
		<path d="M412.869,345.168c0,0.948,0.769,1.717,1.717,1.717c0.948,0,1.717-0.769,1.717-1.717c0-0.948-0.769-1.717-1.717-1.717
			C413.638,343.451,412.869,344.22,412.869,345.168z"/>
		<circle cx="422.415" cy="325.211" r="1.717"/>
		<circle cx="409.737" cy="313.622" r="1.717"/>
		<circle cx="396.982" cy="344.302" r="1.717"/>
		<path d="M305.311,353.461c0,0.948,0.769,1.717,1.717,1.717c0.948,0,1.717-0.769,1.717-1.717c0-0.948-0.769-1.717-1.717-1.717
			C306.079,351.745,305.311,352.513,305.311,353.461z"/>
		<path d="M300.046,350.898c0,0.948,0.768,1.717,1.717,1.717c0.948,0,1.717-0.769,1.717-1.717c0-0.948-0.768-1.717-1.717-1.717
			C300.814,349.181,300.046,349.95,300.046,350.898z"/>
		<path d="M277.149,408.399c0,0.948,0.769,1.717,1.717,1.717c0.948,0,1.717-0.768,1.717-1.717c0-0.948-0.769-1.717-1.717-1.717
			C277.918,406.682,277.149,407.451,277.149,408.399z"/>
		<circle cx="288.491" cy="396.16" r="1.717"/>
		<circle cx="268.113" cy="418.343" r="1.717"/>
		<circle cx="316.04" cy="244.748" r="1.07"/>
		<circle cx="276.628" cy="275.542" r="1.07"/>
		<circle cx="275.558" cy="267.955" r="1.07"/>
		<circle cx="258.583" cy="229.206" r="1.07"/>
		<path d="M265.507,117.597c0,0.591,0.479,1.07,1.07,1.07c0.591,0,1.07-0.479,1.07-1.07c0-0.591-0.479-1.07-1.07-1.07
			C265.986,116.526,265.507,117.006,265.507,117.597z"/>
		<circle cx="316.04" cy="209.046" r="1.07"/>
		<path d="M311.727,196.261c0,0.591,0.479,1.07,1.07,1.07s1.07-0.479,1.07-1.07c0-0.591-0.479-1.07-1.07-1.07
			S311.727,195.67,311.727,196.261z"/>
		<circle cx="308" cy="183.215" r="1.07"/>
		<circle cx="300.117" cy="171.866" r="1.07"/>
		<circle cx="280.704" cy="149.996" r="1.07"/>
		<path d="M269.235,139.846c0,0.591,0.479,1.07,1.07,1.07s1.07-0.479,1.07-1.07c0-0.591-0.479-1.07-1.07-1.07
			S269.235,139.255,269.235,139.846z"/>
		<path d="M258.67,128.663c0,0.591,0.479,1.07,1.07,1.07s1.07-0.479,1.07-1.07c0-0.591-0.479-1.07-1.07-1.07
			S258.67,128.071,258.67,128.663z"/>
		<circle cx="290.985" cy="161.036" r="1.07"/>
		<circle cx="270.444" cy="109.969" r="1.07"/>
		<path d="M272.299,101.372c0,0.591,0.479,1.07,1.07,1.07s1.07-0.479,1.07-1.07c0-0.591-0.479-1.07-1.07-1.07
			S272.299,100.781,272.299,101.372z"/>
		<circle cx="270.305" cy="81.117" r="1.07"/>
		<circle cx="273.231" cy="91.448" r="1.07"/>
		<circle cx="262.875" cy="235.871" r="1.07"/>
		<circle cx="276.628" cy="283.914" r="1.07"/>
		<path d="M372.1,276.018c0,0.591,0.479,1.07,1.07,1.07c0.591,0,1.07-0.479,1.07-1.07c0-0.591-0.479-1.07-1.07-1.07
			C372.579,274.947,372.1,275.427,372.1,276.018z"/>
		<path style="fill:none;stroke:#000000;stroke-miterlimit:10;" d="M252.477,322.466c13.578-4.29,23.908-17.449,27.343-31.268
			c3.435-13.819,0.915-28.622-4.718-41.699c-5.633-13.078-15.714-25.329-24.737-36.345"/>
		<path style="fill:none;stroke:#000000;stroke-miterlimit:10;" d="M333.466,267.177c14.541-12.519,23.632-31.16,24.544-50.325
			c-11.24,0.054-21.769,2.072-32.066,6.578"/>
		<path style="fill:none;stroke:#000000;stroke-miterlimit:10;" d="M371.082,205.779c-19.361,11.393-28.548,35.434-47.893,46.855"/>
		<path style="fill:none;stroke:#000000;stroke-miterlimit:10;" d="M321.763,263.849c12.324-6.242,19.811-17.623,22.57-30.931
			c-6.301-1.646-13.349-1.139-18.962,2.166"/>
		<path style="fill:none;stroke:#000000;stroke-miterlimit:10;" d="M341.934,232.349c2.751-4.941,5.501-9.882,8.252-14.822"/>
		<path style="fill:none;stroke:#000000;stroke-miterlimit:10;" d="M337.151,232.127c2.026-4.469,3.889-9.013,5.582-13.62"/>
		<path style="fill:none;stroke:#000000;stroke-miterlimit:10;" d="M332.598,232.533c1.184-4.208,2.368-8.415,3.552-12.623"/>
		<path style="fill:none;stroke:#000000;stroke-miterlimit:10;" d="M328.932,233.357c0.355-3.936,0.89-7.856,1.602-11.743"/>
		<path style="fill:none;stroke:#000000;stroke-miterlimit:10;" d="M344.066,235.003c4.029-1.501,8.057-3.002,12.086-4.504"/>
		<path style="fill:none;stroke:#000000;stroke-miterlimit:10;" d="M342.661,238.909c3.685,0.197,7.386,0.077,11.05-0.357"/>
		<path style="fill:none;stroke:#000000;stroke-miterlimit:10;" d="M349.967,246.44c-3.087-0.746-6.175-1.493-9.263-2.239"/>
		<path style="fill:none;stroke:#000000;stroke-miterlimit:10;" d="M346.452,252.407c-3.014-0.97-5.984-2.081-8.894-3.329"/>
		<path style="fill:none;stroke:#000000;stroke-miterlimit:10;" d="M341.348,259.51c-2.482-1.748-5.062-3.358-7.723-4.82"/>
		<path style="fill:none;stroke:#000000;stroke-miterlimit:10;" d="M336.462,264.221c-2.369-1.736-4.737-3.471-7.106-5.207"/>
		<path style="fill:none;stroke:#000000;stroke-miterlimit:10;" d="M328.987,267.709c-1.721-1.669-3.371-3.412-4.941-5.224"/>
		<path style="fill:none;stroke:#000000;stroke-miterlimit:10;" d="M349.959,208.139c3.923-7.788,6.475-16.265,7.503-24.924
			c-3.287,0.524-6.574,1.048-9.862,1.572c-2.921,0.466-5.563,1.398-8.304,2.544c-6.144,2.569-11.851,6.194-16.748,10.711"/>
		<path style="fill:none;stroke:#000000;stroke-miterlimit:10;" d="M365.586,171.467c-10.646,16.641-24.321,31.338-40.154,43.152"/>
		<path style="fill:none;stroke:#000000;stroke-miterlimit:10;" d="M343.294,178.127c2.269-6.985,3.086-14.438,2.383-21.748
			c-12.351,3.545-23.427,10.987-31.03,21.345"/>
		<path style="fill:none;stroke:#000000;stroke-miterlimit:10;" d="M351.731,144.133c-8.276,16.705-19.183,32.104-32.196,45.453"/>
		<path style="fill:none;stroke:#000000;stroke-miterlimit:10;" d="M322.415,159.212c5.666-8.727,8.955-18.982,9.423-29.377
			c-13.865,3.483-27.291,10.4-37.807,20.085"/>
		<path style="fill:none;stroke:#000000;stroke-miterlimit:10;" d="M338.976,120.672c-10.503,14.407-22.27,27.893-35.12,40.253"/>
		<path style="fill:none;stroke:#000000;stroke-miterlimit:10;" d="M329.219,144.05c-3.244,0.243-6.487,0.487-9.731,0.73
			c0.586-3.897,1.066-7.638,1.653-11.535"/>
		<path style="fill:none;stroke:#000000;stroke-miterlimit:10;" d="M326.458,151.707c-4.733,0.151-9.465,0.302-14.198,0.453
			c0.29-5.083,0.47-10.164,0.759-15.248"/>
		<path style="fill:none;stroke:#000000;stroke-miterlimit:10;" d="M320.15,161.036c-5.214-0.254-10.429-0.509-15.643-0.763
			c-0.637-5.939-1.167-11.867-1.258-17.839"/>
		<path style="fill:none;stroke:#000000;stroke-miterlimit:10;" d="M345.784,166.77c-2.992,0.903-6.022,1.681-9.079,2.331
			c0.071-3.243,0.093-6.335,0.164-9.578"/>
		<path style="fill:none;stroke:#000000;stroke-miterlimit:10;" d="M343.393,176.889c-4.898,0.842-9.796,1.683-14.694,2.525
			c-0.557-4.427-1.261-9.422-1.818-13.849"/>
		<path style="fill:none;stroke:#000000;stroke-miterlimit:10;" d="M327.753,188.536c-1.876-0.351-3.752-0.701-5.627-1.052
			c-0.854-5.174-2.101-10.444-2.955-15.618"/>
		<path style="fill:none;stroke:#000000;stroke-miterlimit:10;" d="M355.109,195.219c-2.672,0.077-5.343,0.155-8.015,0.232
			c0.174-3.418,0.276-7.008,0.45-10.425"/>
		<path style="fill:none;stroke:#000000;stroke-miterlimit:10;" d="M351.542,205.395c-4.154-0.626-8.308-1.252-12.462-1.878
			c0.255-5.387,0.278-11.004,0.532-16.391"/>
		<path style="fill:none;stroke:#000000;stroke-miterlimit:10;" d="M337.473,211.422c-2.257-0.18-4.08-0.382-6.281-0.912
			c-0.401-6.894-0.602-12.562-0.907-18.444"/>
		<path style="fill:none;stroke:#000000;stroke-miterlimit:10;" d="M345.557,273.464c7.149-2.116,14.735-3.176,22.179-3.685
			c8.179-0.559,16.413-0.289,24.538,0.798c4.063,0.544,8.098,1.291,12.085,2.242c1.993,0.475,3.975,1.001,5.941,1.578
			c0.983,0.288,1.963,0.589,2.938,0.903c0.507,0.163,1.013,0.329,1.518,0.499c0.196,0.066,1.28,0.438,1.28,0.438
			c-7.142,3.744-13.107,9.174-18.914,14.461c-5.771,5.255-11.625,10.638-18.659,14.167c-1.789,0.898-3.675,1.779-5.639,2.249"/>
		<path style="fill:none;stroke:#000000;stroke-miterlimit:10;" d="M346.852,270.583c24.931-6.12,51.775-4.174,75.563,5.475
			c-18.171,6.514-28.339,25.392-46.286,32.498"/>
		<path style="fill:none;stroke:#000000;stroke-miterlimit:10;" d="M293.22,366.06c5.426,8.659,6.599,20.54,3.13,30.152
			c-3.469,9.612-10.349,17.698-18.293,24.125c-7.944,6.428-18.715,12.841-27.693,17.722c-8.978-4.881-19.749-11.294-27.693-17.722
			c-7.944-6.427-14.824-14.513-18.293-24.125c-3.469-9.612-2.296-21.493,3.13-30.152"/>
		<path style="fill:none;stroke:#000000;stroke-miterlimit:10;" d="M281.916,362.972c3.471,6.396,3.192,14.388,0.412,21.113
			c-2.779,6.725-7.822,12.304-13.472,16.889c-5.651,4.585-12.39,9.459-18.492,13.424c-6.102-3.965-12.841-8.839-18.492-13.424
			c-5.651-4.585-10.693-10.164-13.472-16.889c-2.78-6.725-3.058-14.717,0.412-21.113"/>
		<path style="fill:none;stroke:#000000;stroke-miterlimit:10;" d="M296.504,372.793c-4.008-1.444-8.057-2.773-12.14-3.986"/>
		<path style="fill:none;stroke:#000000;stroke-miterlimit:10;" d="M297.473,392.054c-4.763-3.519-9.332-7.306-13.982-10.975"/>
		<path style="fill:none;stroke:#000000;stroke-miterlimit:10;" d="M289.345,408.989c-4.063-5.615-8.126-11.23-12.189-16.845"/>
		<path style="fill:none;stroke:#000000;stroke-miterlimit:10;" d="M277.675,420.458c-2.902-6.604-5.805-13.207-8.707-19.811"/>
		<path style="fill:none;stroke:#000000;stroke-miterlimit:10;" d="M263.113,430.606c-2.005-7.031-4.01-14.062-6.015-21.094"/>
		<path d="M278.866,367.413c0,0.472,0.383,0.855,0.854,0.855c0.472,0,0.855-0.383,0.855-0.855c0-0.472-0.383-0.854-0.855-0.854
			C279.248,366.558,278.866,366.941,278.866,367.413z"/>
		<path d="M300.908,322.244c0,0.472,0.383,0.855,0.855,0.855c0.472,0,0.855-0.383,0.855-0.855c0-0.472-0.383-0.854-0.855-0.854
			C301.291,321.39,300.908,321.772,300.908,322.244z"/>
		<circle cx="289.345" cy="328.407" r="0.855"/>
		<path d="M295.518,325.903c0,0.472,0.383,0.855,0.855,0.855c0.472,0,0.855-0.383,0.855-0.855c0-0.472-0.383-0.854-0.855-0.854
			C295.9,325.048,295.518,325.431,295.518,325.903z"/>
		<circle cx="317.211" cy="359.532" r="0.855"/>
		<path d="M281.382,329.261c0,0.472,0.383,0.855,0.854,0.855c0.472,0,0.855-0.383,0.855-0.855c0-0.472-0.383-0.855-0.855-0.855
			C281.764,328.407,281.382,328.789,281.382,329.261z"/>
		<path d="M274.238,328.407c0,0.472,0.383,0.855,0.855,0.855c0.472,0,0.854-0.383,0.854-0.855c0-0.472-0.383-0.855-0.854-0.855
			C274.621,327.552,274.238,327.935,274.238,328.407z"/>
		<path d="M320.895,362.972c0,0.472,0.383,0.855,0.854,0.855c0.472,0,0.855-0.383,0.855-0.855c0-0.472-0.383-0.855-0.855-0.855
			C321.278,362.117,320.895,362.5,320.895,362.972z"/>
		<circle cx="312.16" cy="356.361" r="0.855"/>
		<path d="M279.384,378.126c0,0.472,0.383,0.854,0.855,0.854c0.472,0,0.855-0.383,0.855-0.854c0-0.472-0.383-0.855-0.855-0.855
			C279.766,377.272,279.384,377.654,279.384,378.126z"/>
		<circle cx="275.26" cy="388.685" r="0.855"/>
		<circle cx="280.575" cy="372.793" r="0.855"/>
		<circle cx="278.011" cy="383.913" r="0.855"/>
		<path d="M270.85,392.489c0,0.472,0.383,0.855,0.854,0.855c0.472,0,0.855-0.383,0.855-0.855c0-0.472-0.383-0.854-0.855-0.854
			C271.232,391.635,270.85,392.017,270.85,392.489z"/>
		<path d="M263.113,399.908c0,0.472,0.383,0.855,0.854,0.855c0.472,0,0.855-0.383,0.855-0.855c0-0.472-0.383-0.854-0.855-0.854
			C263.496,399.053,263.113,399.436,263.113,399.908z"/>
		<circle cx="253.441" cy="406.874" r="0.855"/>
		<circle cx="268.113" cy="396.16" r="0.855"/>
		<path d="M258.397,403.108c0,0.472,0.383,0.854,0.855,0.854c0.472,0,0.855-0.383,0.855-0.854c0-0.472-0.383-0.855-0.855-0.855
			C258.779,402.253,258.397,402.636,258.397,403.108z"/>
		<path style="fill:none;stroke:#000000;stroke-miterlimit:10;" d="M292.931,336.682c0.367,4.282-1.985,8.556-5.52,11.001
			c-3.535,2.445-8.083,3.174-12.332,2.524"/>
		<path style="fill:none;stroke:#000000;stroke-miterlimit:10;" d="M286.393,337.733c-0.489,2.658-2.279,5.045-4.692,6.26
			c-2.414,1.215-5.397,1.231-7.824,0.042"/>
		<path style="fill:none;stroke:#000000;stroke-miterlimit:10;" d="M348.299,267.807c-5.524,1.818-9.882,6.135-13.311,10.832
			c-3.429,4.697-6.141,9.893-9.67,14.515c-2.471,3.236-5.667,6.35-9.706,6.866"/>
		<path style="fill:none;stroke:#000000;stroke-miterlimit:10;" d="M335.391,278.095c0.419-4.284,0.358-7.133,0.589-11.32"/>
		<path style="fill:none;stroke:#000000;stroke-miterlimit:10;" d="M330.307,285.74c0.335-5.954,0.691-12.295,1.026-18.249"/>
		<path style="fill:none;stroke:#000000;stroke-miterlimit:10;" d="M324.644,294.229c0.433-8.81,0.866-17.62,1.299-26.43"/>
		<path style="fill:none;stroke:#000000;stroke-miterlimit:10;" d="M318.965,298.931c0.482-8.981,0.773-17.514,1.255-26.495"/>
		<path style="fill:none;stroke:#000000;stroke-miterlimit:10;" d="M410.3,274.397c-0.89-0.161-3.266,0.264-3.857,0.948
			c-0.592,0.684-0.914,1.557-1.177,2.423c-0.647,2.127-1.009,4.341-1.075,6.564"/>
		<path style="fill:none;stroke:#000000;stroke-miterlimit:10;" d="M405.473,276.562c-1.093-0.757-2.617-0.676-3.794-0.058
			c-1.177,0.619-2.052,1.694-2.729,2.839c-2.246,3.795-2.545,7.859-2.822,12.261"/>
		<path style="fill:none;stroke:#000000;stroke-miterlimit:10;" d="M398.576,279.693c-1.62-0.737-3.614-0.067-4.875,1.19
			c-1.261,1.257-1.925,2.984-2.431,4.69c-1.192,4.014-1.701,8.194-2.206,12.35"/>
		<path style="fill:none;stroke:#000000;stroke-miterlimit:10;" d="M391.762,283.544c-1.936-0.971-4.406-0.005-5.77,1.676
			c-1.364,1.682-1.858,3.894-2.177,6.036c-0.566,3.8-0.713,7.648-0.86,11.487"/>
		<path style="fill:none;stroke:#000000;stroke-miterlimit:10;" d="M384.4,288.008c-0.984-0.854-2.534-0.836-3.653-0.17
			c-1.12,0.665-1.843,1.862-2.208,3.112c-0.365,1.25-0.411,2.568-0.455,3.87c-0.116,3.455-0.232,6.911-0.348,10.366"/>
		<path style="fill:none;stroke:#000000;stroke-miterlimit:10;" d="M378.714,289.777c-2.27-0.645-4.761,0.641-6.115,2.573
			c-1.354,1.932-1.767,4.37-1.862,6.728c-0.094,2.358,0.092,4.732-0.223,7.07"/>
		<path style="fill:none;stroke:#000000;stroke-miterlimit:10;" d="M371.34,294.367c-1.526-0.169-3.263-0.273-4.391,0.768
			c-0.723,0.667-1.024,1.668-1.23,2.63c-0.454,2.114-0.597,4.295-0.424,6.45"/>
		<path style="fill:none;stroke:#000000;stroke-miterlimit:10;" d="M409.04,280.377c0.14-1.166,0.28-2.331,0.42-3.497"/>
		<path style="fill:none;stroke:#000000;stroke-miterlimit:10;" d="M400.808,287.137c0.278-2.805,0.278-4.47,0.556-6.76"/>
		<path style="fill:none;stroke:#000000;stroke-miterlimit:10;" d="M393.003,294.658c0.444-2.994,0.852-6.354,1.416-9.483"/>
		<path style="fill:none;stroke:#000000;stroke-miterlimit:10;" d="M386.338,299.919c0.516-3.702,0.642-6.711,1.021-10.31"/>
		<path style="fill:none;stroke:#000000;stroke-miterlimit:10;" d="M380.484,303.601c0.278-3.182,0.555-6.365,0.833-9.547"/>
		<path style="fill:none;stroke:#000000;stroke-miterlimit:10;" d="M374.225,306.497c0.195-3.389,0.391-6.777,0.587-10.166"/>
		<path style="fill:none;stroke:#000000;stroke-miterlimit:10;" d="M365.372,297.73c-0.772-0.763-1.988-0.988-3.026-0.672
			c-1.038,0.315-1.889,1.119-2.391,2.081c-0.501,0.962-0.674,2.071-0.634,3.155"/>
		<path style="fill:none;stroke:#000000;stroke-miterlimit:10;" d="M335.98,297.161c4.725,1.094,11.766,0.913,17.468-1.376
			c4.696-1.885,9.791-4.721,12.32-9.403c1.206-2.232,1.602-4.947,0.813-7.358c-1.362-4.158-6.006-6.163-10.065-4.722
			c-2.221,0.788-4.068,2.671-4.633,4.959s0.262,4.907,2.151,6.316c-4.077,5.032-10.362,8.431-16.803,9.112"/>
		<path style="fill:none;stroke:#000000;stroke-miterlimit:10;" d="M353.448,285.065c1.818,1.85,4.27,1.543,5.807,0.297"/>
		<path style="fill:none;stroke:#000000;stroke-miterlimit:10;" d="M391.149,316.307c-18.08-2.127-36.407-2.157-54.494-0.091"/>
		<path style="fill:none;stroke:#000000;stroke-miterlimit:10;" d="M381.916,321.885c-2.565-1.87-4.353-4.361-7.751-7.047"/>
		<path style="fill:none;stroke:#000000;stroke-miterlimit:10;" d="M375.75,327.552c-5.388-4.864-8.795-7.94-14.183-12.804"/>
		<path style="fill:none;stroke:#000000;stroke-miterlimit:10;" d="M368.631,333.195c-7.327-6.63-12.776-11.561-20.103-18.191"/>
		<path style="fill:none;stroke:#000000;stroke-miterlimit:10;" d="M361.053,337.94c-8.747-8.081-14.862-13.731-23.609-21.813"/>
		<path style="fill:none;stroke:#000000;stroke-miterlimit:10;" d="M350.646,341.636c-7.075-6.757-11.989-11.45-19.064-18.206"/>
		<path style="fill:none;stroke:#000000;stroke-miterlimit:10;" d="M339.445,341.605c-6.358-6.053-10.113-9.628-16.471-15.682"/>
		<path style="fill:none;stroke:#000000;stroke-miterlimit:10;" d="M289.342,225.375c-0.003,0.201-0.002,0.402,0.004,0.602
			c0.057,1.939,0.825,3.784,0.558,5.736c-0.324,2.374-2.89,3.766-4.916,2.248c-2.175-1.63-1.194-5.256-0.274-7.314
			c1.177-2.63,3.212-4.873,5.732-6.274c-0.479,0.267-0.753,2.17-0.855,2.679C289.439,223.818,289.355,224.596,289.342,225.375z"/>
		<path style="fill:none;stroke:#000000;stroke-miterlimit:10;" d="M280.568,252.829c0.968-10.309-3.255-20.974-11.017-27.826"/>
		<path style="fill:none;stroke:#000000;stroke-miterlimit:10;" d="M280.081,244.404c5.999-3.392,12.847-5.266,19.737-5.403"/>
		<path style="fill:none;stroke:#000000;stroke-miterlimit:10;" d="M290.004,240.272c-3.402-3.627-8.406-5.695-13.376-5.53"/>
		<path style="fill:none;stroke:#000000;stroke-miterlimit:10;" d="M288.165,370.083c1.477,1.889,1.876,4.566,1.015,6.804
			c-0.862,2.238-2.953,3.956-5.316,4.367"/>
		<path style="fill:none;stroke:#000000;stroke-miterlimit:10;" d="M284.363,381.77c1.181,2.308,1.634,5.428,0.208,7.594
			s-4.06,3.474-6.646,3.301"/>
		<path style="fill:none;stroke:#000000;stroke-miterlimit:10;" d="M278.525,394.193c0.633,2.456-0.33,5.247-2.343,6.789
			c-2.013,1.543-5.119,1.242-7.325-0.008"/>
		<path style="fill:none;stroke:#000000;stroke-miterlimit:10;" d="M268.856,400.974c0.396,3.052-0.454,7.323-3.037,8.998
			c-2.583,1.675-6.129,1.721-8.754,0.114"/>
		<path style="fill:none;stroke:#000000;stroke-miterlimit:10;" d="M314.357,95.429c-5.232,2.744-9.137,7.53-12.004,12.696
			c-2.867,5.165-4.823,10.775-7.128,16.214c-2.543,6.002-6.004,12.09-11.795,15.507"/>
		<path style="fill:none;stroke:#000000;stroke-miterlimit:10;" d="M286.357,142.484c6.526-4.102,11.776-10.205,14.855-17.271
			c2.141-4.913,3.234-10.206,4.851-15.315c1.617-5.109,3.874-10.206,7.814-13.839c-6.975,1.754-13.78,4.23-19.747,8.245"/>
		<path style="fill:none;stroke:#000000;stroke-miterlimit:10;" d="M292.046,342.626c-2.021-1.13-4.042-2.259-6.062-3.389"/>
		<path style="fill:none;stroke:#000000;stroke-miterlimit:10;" d="M286.646,348.364c-1.163-1.8-2.327-3.599-3.49-5.399"/>
		<path style="fill:none;stroke:#000000;stroke-miterlimit:10;" d="M280.799,350.387c-0.769-1.738-1.417-3.53-1.939-5.358"/>
		<path style="fill:none;stroke:#000000;stroke-miterlimit:10;" d="M312.798,240.82c-1.801-14.567-7.3-28.549-15.037-41.023
			c-7.737-12.473-17.675-23.485-28.613-33.273c-6.607-5.912-13.398-13.354-18.783-20.546c-5.238,7.02-12.176,14.633-18.783,20.546
			c-10.938,9.788-20.876,20.8-28.613,33.273c-7.737,12.473-13.236,26.456-15.037,41.023"/>
		<path style="fill:none;stroke:#000000;stroke-miterlimit:10;" d="M309.55,241.423c-2.133-13.528-7.406-26.492-14.632-38.141
			c-7.737-12.473-17.675-23.485-28.613-33.273c-5.61-5.02-11.54-10.864-15.884-17.011c-4.344,6.147-10.387,11.991-15.997,17.011
			c-10.938,9.788-20.876,20.8-28.613,33.273c-7.225,11.648-12.499,24.613-14.632,38.141"/>
		<path style="fill:none;stroke:#000000;stroke-miterlimit:10;" d="M320.57,240.207c1.754-13.09,1.1-27.007-2.194-39.811
			c-4.632-18.003-15.224-33.063-27.868-46.396c-12.859-13.559-27.396-25.83-39.738-40.825
			c-12.342,14.994-27.69,27.266-40.549,40.825c-12.645,13.333-23.237,28.392-27.868,46.396c-3.294,12.804-3.948,26.721-2.194,39.811
			"/>
		<path style="fill:none;stroke:#000000;stroke-miterlimit:10;" d="M255.188,217.297c-0.337-3.679,0.567-7.438,2.411-10.639
			c1.502-2.607,3.661-4.886,6.352-6.233c2.691-1.347,5.933-1.695,8.752-0.643c2.819,1.052,5.112,3.589,5.576,6.562
			c0.465,2.973-1.092,6.233-3.827,7.487c-2.735,1.255-6.407,0.149-7.765-2.537"/>
		<path style="fill:none;stroke:#000000;stroke-miterlimit:10;" d="M321.363,232.085c-0.749-2.007-2.655-3.417-4.704-4.043
			c-2.049-0.626-4.24-0.57-6.374-0.384"/>
		<path style="fill:none;stroke:#000000;stroke-miterlimit:10;" d="M316.904,227.89c0.785-1.578,1.302-3.316,1.286-5.079
			c-0.015-1.762-0.594-3.551-1.778-4.856c-1.184-1.305-3.003-2.069-4.745-1.801c-1.742,0.267-3.311,1.648-3.616,3.384
			c-0.242,1.375,0.39,2.92,1.635,3.551c1.245,0.632,3.005,0.108,3.536-1.183"/>
		<path style="fill:none;stroke:#000000;stroke-miterlimit:10;" d="M311.666,216.01c1.306-5.532,0.78-11.479-1.476-16.696
			c-3.636-8.409-12.763-16.469-22.509-14.1"/>
		<path style="fill:none;stroke:#000000;stroke-miterlimit:10;" d="M299.335,191.171c-2.347-2.162-5.917-2.895-8.926-1.832"/>
		<path style="fill:none;stroke:#000000;stroke-miterlimit:10;" d="M255.37,151.655c2.063-2.142,5.364-2.997,8.208-2.126
			c2.844,0.871,5.099,3.429,5.608,6.359c0.509,2.93-0.751,6.098-3.135,7.878"/>
		<path style="fill:none;stroke:#000000;stroke-miterlimit:10;" d="M269.539,157.281c3.998-0.478,8.174,1.875,9.837,5.541
			c1.663,3.667,0.682,8.358-2.31,11.051"/>
		<path style="fill:none;stroke:#000000;stroke-miterlimit:10;" d="M280.451,166.066c3.551,0.623,6.637,3.388,7.645,6.849
			c1.008,3.461-0.111,7.451-2.772,9.883"/>
		<path style="fill:none;stroke:#000000;stroke-miterlimit:10;" d="M284.619,179.065c1.329-2.066,1.444-4.854,0.289-7.022"/>
		<path style="fill:none;stroke:#000000;stroke-miterlimit:10;" d="M276.223,169.786c0.733-1.131,1.051-2.524,0.883-3.861
			c-0.169-1.337-0.823-2.607-1.814-3.52"/>
		<path style="fill:none;stroke:#000000;stroke-miterlimit:10;" d="M266.268,159.934c0.65-1.112,0.877-2.465,0.626-3.729
			c-0.251-1.264-0.977-2.427-2.002-3.207"/>
		<path style="fill:none;stroke:#000000;stroke-miterlimit:10;" d="M397.938,293.596c20.194,12.168,35.827,31.82,43.21,54.207
			c-14.22,3.092-27.997,5.297-40.99,6.562c-8.515,0.829-18.535,1.507-28.279,0.253c-9.589-1.233-19.087-4.917-26.058-10.11"/>
		<path style="fill:none;stroke:#000000;stroke-miterlimit:10;" d="M399.186,291.526c21.469,12.935,37.862,34.06,45.06,58.069
			c-14.274,3.198-29.293,5.759-43.853,7.175c-9.583,0.932-19.272,1.473-28.822,0.245s-19.471-4.818-27.193-10.57"/>
		<path style="fill:none;stroke:#000000;stroke-miterlimit:10;" d="M444.305,349.691c-16.619-13.377-35.656-23.742-55.911-30.439"/>
		<path style="fill:none;stroke:#000000;stroke-miterlimit:10;" d="M419.701,332.983c1.2,3.82,2.4,7.639,3.599,11.459"/>
		<path style="fill:none;stroke:#000000;stroke-miterlimit:10;" d="M410.584,328.279c1.334,5.341,2.668,10.682,4.001,16.024"/>
		<path style="fill:none;stroke:#000000;stroke-miterlimit:10;" d="M403.086,324.906c1.018,6.214,2.036,12.428,3.054,18.642"/>
		<path style="fill:none;stroke:#000000;stroke-miterlimit:10;" d="M392.202,320.454c1.311,7.704,2.906,15.359,4.78,22.945"/>
		<path style="fill:none;stroke:#000000;stroke-miterlimit:10;" d="M382.007,325.211c0.871,6.188,1.742,12.377,2.613,18.565"/>
		<path style="fill:none;stroke:#000000;stroke-miterlimit:10;" d="M419.784,332.754c3.477-0.687,7.012-1.078,10.554-1.167"/>
		<path style="fill:none;stroke:#000000;stroke-miterlimit:10;" d="M410.384,328.074c4-1.249,8.069-2.276,12.183-3.074"/>
		<path style="fill:none;stroke:#000000;stroke-miterlimit:10;" d="M402.555,324.595c4.788-1.411,9.576-2.822,14.365-4.233"/>
		<path style="fill:none;stroke:#000000;stroke-miterlimit:10;" d="M392.065,320.531c5.703-2.676,11.578-4.985,17.577-6.909"/>
		<path style="fill:none;stroke:#000000;stroke-miterlimit:10;" d="M386.349,313.116c4.508-2.47,9.017-4.941,13.526-7.411"/>
		<path style="fill:none;stroke:#000000;stroke-miterlimit:10;" d="M372.166,333.407c0.379,3.009,0.758,6.019,1.137,9.028"/>
		<path style="fill:none;stroke:#000000;stroke-miterlimit:10;" d="M252.601,107.49c3.154-5.993,4.684-12.832,4.384-19.598
			c-0.3-6.766-3.204-13.442-6.877-19.132c-3.673,5.69-6.532,12.366-6.832,19.132c-0.3,6.766,1.229,13.605,4.384,19.598"/>
		<path style="fill:none;stroke:#000000;stroke-miterlimit:10;" d="M250.645,322.333c0,0,16.009-8.481,14.945-27.578
			c-1.064-19.097-15.153-31.108-15.153-31.108s-13.953,12.011-15.017,31.108c-1.064,19.097,14.945,27.578,14.945,27.578"/>
		<path style="fill:none;stroke:#000000;stroke-miterlimit:10;" d="M250.438,322.163c0,0,8.456-5.765,7.893-18.744
			c-0.562-12.98-8.003-21.143-8.003-21.143s-7.37,8.164-7.932,21.143c-0.562,12.98,7.893,18.744,7.893,18.744"/>
		<path style="fill:none;stroke:#000000;stroke-miterlimit:10;" d="M260.792,329.716c0,0,12.29,15.394-10.427,37.297
			c-22.717-21.903-10.427-37.297-10.427-37.297"/>
		<line style="fill:none;stroke:#000000;stroke-miterlimit:10;" x1="250.364" y1="213.154" x2="250.364" y2="186.882"/>
		<line style="fill:none;stroke:#000000;stroke-miterlimit:10;" x1="250.504" y1="175.336" x2="250.504" y2="152.93"/>
		<path d="M252.613,185.025c0,1.242-1.007,2.248-2.248,2.248c-1.242,0-2.248-1.007-2.248-2.248c0-1.242,1.007-2.248,2.248-2.248
			C251.606,182.777,252.613,183.784,252.613,185.025z"/>
		<path d="M252.613,242.316c0,1.242-1.007,2.248-2.248,2.248c-1.242,0-2.248-1.007-2.248-2.248c0-1.242,1.007-2.248,2.248-2.248
			C251.606,240.068,252.613,241.074,252.613,242.316z"/>
		<path d="M252.613,291.526c0,1.242-1.007,2.248-2.248,2.248c-1.242,0-2.248-1.007-2.248-2.248c0-1.242,1.007-2.248,2.248-2.248
			C251.606,289.277,252.613,290.284,252.613,291.526z"/>
		<path d="M252.613,299.607c0,1.242-1.007,2.248-2.248,2.248c-1.242,0-2.248-1.007-2.248-2.248c0-1.242,1.007-2.248,2.248-2.248
			C251.606,297.359,252.613,298.365,252.613,299.607z"/>
		<path d="M252.613,307.688c0,1.242-1.007,2.248-2.248,2.248c-1.242,0-2.248-1.007-2.248-2.248c0-1.242,1.007-2.248,2.248-2.248
			C251.606,305.44,252.613,306.446,252.613,307.688z"/>
		<path d="M252.613,315.769c0,1.242-1.007,2.248-2.248,2.248c-1.242,0-2.248-1.007-2.248-2.248s1.007-2.248,2.248-2.248
			C251.606,313.521,252.613,314.527,252.613,315.769z"/>
		<path d="M252.613,281.867c0,1.242-1.007,2.248-2.248,2.248c-1.242,0-2.248-1.007-2.248-2.248s1.007-2.248,2.248-2.248
			C251.606,279.619,252.613,280.625,252.613,281.867z"/>
		<path d="M252.613,255.077c0,1.242-1.007,2.248-2.248,2.248c-1.242,0-2.248-1.007-2.248-2.248c0-1.242,1.007-2.248,2.248-2.248
			C251.606,252.829,252.613,253.835,252.613,255.077z"/>
		<path d="M252.613,95.429c0,1.242-1.007,2.248-2.248,2.248c-1.242,0-2.248-1.007-2.248-2.248c0-1.242,1.007-2.248,2.248-2.248
			C251.606,93.181,252.613,94.188,252.613,95.429z"/>
		<path d="M252.613,85.009c0,1.242-1.007,2.248-2.248,2.248c-1.242,0-2.248-1.007-2.248-2.248s1.007-2.248,2.248-2.248
			C251.606,82.761,252.613,83.767,252.613,85.009z"/>
		<path d="M252.378,52.668c0,1.242-1.007,2.248-2.248,2.248c-1.242,0-2.248-1.007-2.248-2.248s1.007-2.248,2.248-2.248
			C251.371,50.42,252.378,51.426,252.378,52.668z"/>
		<path d="M252.378,449.411c0,1.242-1.007,2.248-2.248,2.248c-1.242,0-2.248-1.007-2.248-2.248s1.007-2.248,2.248-2.248
			C251.371,447.163,252.378,448.17,252.378,449.411z"/>
		<path d="M252.378,440.307c0,1.242-1.007,2.248-2.248,2.248c-1.242,0-2.248-1.007-2.248-2.248c0-1.242,1.007-2.248,2.248-2.248
			C251.371,438.059,252.378,439.066,252.378,440.307z"/>
		<path d="M252.378,422.706c0,1.242-1.007,2.248-2.248,2.248c-1.242,0-2.248-1.007-2.248-2.248s1.007-2.248,2.248-2.248
			C251.371,420.458,252.378,421.465,252.378,422.706z"/>
		<path d="M252.378,388.685c0,1.242-1.007,2.248-2.248,2.248c-1.242,0-2.248-1.007-2.248-2.248c0-1.242,1.007-2.248,2.248-2.248
			C251.371,386.437,252.378,387.443,252.378,388.685z"/>
		<path d="M252.378,368.807c0,1.242-1.007,2.248-2.248,2.248c-1.242,0-2.248-1.007-2.248-2.248c0-1.242,1.007-2.248,2.248-2.248
			C251.371,366.559,252.378,367.566,252.378,368.807z"/>
		<path d="M186.05,95.518c0,1.242-1.007,2.248-2.248,2.248c-1.242,0-2.248-1.007-2.248-2.248s1.007-2.248,2.248-2.248
			C185.044,93.27,186.05,94.276,186.05,95.518z"/>
		<path d="M129.674,205.395c0,1.242-1.006,2.248-2.248,2.248c-1.242,0-2.248-1.007-2.248-2.248c0-1.242,1.007-2.248,2.248-2.248
			C128.667,203.147,129.674,204.154,129.674,205.395z"/>
		<path d="M375.419,205.395c0,1.242-1.007,2.248-2.248,2.248c-1.242,0-2.248-1.007-2.248-2.248c0-1.242,1.007-2.248,2.248-2.248
			C374.412,203.147,375.419,204.154,375.419,205.395z"/>
		<path d="M56.284,350.898c0,1.242-1.007,2.248-2.248,2.248c-1.242,0-2.248-1.007-2.248-2.248c0-1.242,1.007-2.248,2.248-2.248
			C55.278,348.65,56.284,349.656,56.284,350.898z"/>
		<path d="M448.941,350.898c0,1.242-1.007,2.248-2.248,2.248c-1.242,0-2.248-1.007-2.248-2.248c0-1.242,1.007-2.248,2.248-2.248
			C447.935,348.65,448.941,349.656,448.941,350.898z"/>
		<path d="M139.075,377.272c0,1.242-1.007,2.248-2.248,2.248c-1.242,0-2.248-1.007-2.248-2.248c0-1.242,1.007-2.248,2.248-2.248
			C138.069,375.023,139.075,376.03,139.075,377.272z"/>
		<path d="M366.15,377.272c0,1.242-1.007,2.248-2.248,2.248c-1.242,0-2.248-1.007-2.248-2.248c0-1.242,1.007-2.248,2.248-2.248
			C365.143,375.023,366.15,376.03,366.15,377.272z"/>
		<path d="M78.314,276.059c0,1.242-1.007,2.248-2.248,2.248s-2.248-1.006-2.248-2.248c0-1.242,1.007-2.248,2.248-2.248
			S78.314,274.817,78.314,276.059z"/>
		<path d="M426.38,276.059c0,1.242-1.007,2.248-2.248,2.248c-1.242,0-2.248-1.006-2.248-2.248c0-1.242,1.007-2.248,2.248-2.248
			C425.373,273.811,426.38,274.817,426.38,276.059z"/>
		<g>
			<g>
				<path d="M375.851,393.206c0,1.242-1.007,2.248-2.248,2.248s-2.248-1.007-2.248-2.248c0-1.242,1.006-2.248,2.248-2.248
					S375.851,391.965,375.851,393.206z"/>
				<path d="M432.36,266.776c0,1.242-1.007,2.248-2.248,2.248c-1.242,0-2.248-1.007-2.248-2.248c0-1.242,1.007-2.248,2.248-2.248
					C431.354,264.528,432.36,265.534,432.36,266.776z"/>
				<path d="M452.229,330.229c0,1.242-1.007,2.248-2.248,2.248c-1.242,0-2.248-1.007-2.248-2.248c0-1.242,1.007-2.248,2.248-2.248
					C451.223,327.981,452.229,328.987,452.229,330.229z"/>
				<path d="M362.607,389.539c0,1.242-1.007,2.248-2.248,2.248c-1.242,0-2.248-1.007-2.248-2.248c0-1.242,1.007-2.248,2.248-2.248
					C361.601,387.291,362.607,388.298,362.607,389.539z"/>
				<path d="M295.911,430.606c0,1.242-1.007,2.248-2.248,2.248s-2.248-1.007-2.248-2.248s1.007-2.248,2.248-2.248
					S295.911,429.365,295.911,430.606z"/>
				<path d="M305.081,422.706c0,1.242-1.007,2.248-2.248,2.248s-2.248-1.007-2.248-2.248s1.007-2.248,2.248-2.248
					S305.081,421.465,305.081,422.706z"/>
				<path d="M311.961,451.66c0,1.242-1.007,2.248-2.248,2.248c-1.242,0-2.248-1.007-2.248-2.248c0-1.242,1.007-2.248,2.248-2.248
					C310.954,449.411,311.961,450.418,311.961,451.66z"/>
				<path d="M456.725,342.435c0,1.242-1.007,2.248-2.248,2.248s-2.248-1.007-2.248-2.248c0-1.242,1.007-2.248,2.248-2.248
					S456.725,341.193,456.725,342.435z"/>
				<path d="M372.626,254.69c0,1.242-1.007,2.248-2.248,2.248c-1.242,0-2.248-1.007-2.248-2.248c0-1.242,1.007-2.248,2.248-2.248
					C371.62,252.442,372.626,253.448,372.626,254.69z"/>
				<path d="M388.398,252.829c0,1.242-1.007,2.248-2.248,2.248c-1.242,0-2.248-1.007-2.248-2.248c0-1.242,1.007-2.248,2.248-2.248
					C387.392,250.581,388.398,251.587,388.398,252.829z"/>
				<path d="M387.888,224.938c0,1.242-1.007,2.248-2.248,2.248c-1.242,0-2.248-1.007-2.248-2.248c0-1.242,1.007-2.248,2.248-2.248
					C386.881,222.69,387.888,223.696,387.888,224.938z"/>
				<path d="M427.419,254.69c0,1.242-1.007,2.248-2.248,2.248c-1.242,0-2.248-1.007-2.248-2.248c0-1.242,1.007-2.248,2.248-2.248
					C426.413,252.442,427.419,253.448,427.419,254.69z"/>
				<path d="M375.28,243.678c0,1.242-1.007,2.248-2.248,2.248c-1.242,0-2.248-1.007-2.248-2.248c0-1.242,1.007-2.248,2.248-2.248
					C374.274,241.43,375.28,242.436,375.28,243.678z"/>
				<path d="M376.458,182.144c0,1.242-1.007,2.248-2.248,2.248c-1.242,0-2.248-1.007-2.248-2.248c0-1.242,1.007-2.248,2.248-2.248
					C375.452,179.896,376.458,180.903,376.458,182.144z"/>
				<path d="M348.674,135.978c0,1.242-1.007,2.248-2.248,2.248s-2.248-1.007-2.248-2.248c0-1.242,1.007-2.248,2.248-2.248
					S348.674,134.736,348.674,135.978z"/>
				<path d="M295.071,72.751c0,1.242-1.007,2.248-2.248,2.248s-2.248-1.007-2.248-2.248s1.007-2.248,2.248-2.248
					S295.071,71.509,295.071,72.751z"/>
				<path d="M312.739,48.34c0,1.242-1.007,2.248-2.248,2.248c-1.242,0-2.248-1.007-2.248-2.248c0-1.242,1.007-2.248,2.248-2.248
					C311.733,46.092,312.739,47.099,312.739,48.34z"/>
				<path d="M305.837,82.761c0,1.242-1.007,2.248-2.248,2.248c-1.242,0-2.248-1.007-2.248-2.248c0-1.242,1.007-2.248,2.248-2.248
					C304.831,80.513,305.837,81.519,305.837,82.761z"/>
			</g>
			<g>
				<path d="M124.149,393.206c0,1.242,1.007,2.248,2.248,2.248s2.248-1.007,2.248-2.248c0-1.242-1.007-2.248-2.248-2.248
					S124.149,391.965,124.149,393.206z"/>
				<path d="M67.64,266.776c0,1.242,1.007,2.248,2.248,2.248s2.248-1.007,2.248-2.248c0-1.242-1.007-2.248-2.248-2.248
					S67.64,265.534,67.64,266.776z"/>
				<path d="M47.771,330.229c0,1.242,1.007,2.248,2.248,2.248c1.242,0,2.248-1.007,2.248-2.248c0-1.242-1.007-2.248-2.248-2.248
					C48.777,327.981,47.771,328.987,47.771,330.229z"/>
				<path d="M137.393,389.539c0,1.242,1.007,2.248,2.248,2.248c1.242,0,2.248-1.007,2.248-2.248c0-1.242-1.007-2.248-2.248-2.248
					C138.399,387.291,137.393,388.298,137.393,389.539z"/>
				<path d="M204.089,430.606c0,1.242,1.007,2.248,2.248,2.248c1.242,0,2.248-1.007,2.248-2.248s-1.007-2.248-2.248-2.248
					C205.095,428.358,204.089,429.365,204.089,430.606z"/>
				<path d="M194.919,422.706c0,1.242,1.007,2.248,2.248,2.248c1.242,0,2.248-1.007,2.248-2.248s-1.007-2.248-2.248-2.248
					C195.926,420.458,194.919,421.465,194.919,422.706z"/>
				<path d="M188.039,451.66c0,1.242,1.007,2.248,2.248,2.248c1.242,0,2.248-1.007,2.248-2.248c0-1.242-1.006-2.248-2.248-2.248
					C189.046,449.411,188.039,450.418,188.039,451.66z"/>
				<path d="M43.275,342.435c0,1.242,1.007,2.248,2.248,2.248s2.248-1.007,2.248-2.248c0-1.242-1.007-2.248-2.248-2.248
					S43.275,341.193,43.275,342.435z"/>
				<path d="M127.374,254.69c0,1.242,1.007,2.248,2.248,2.248c1.242,0,2.248-1.007,2.248-2.248c0-1.242-1.007-2.248-2.248-2.248
					C128.38,252.442,127.374,253.448,127.374,254.69z"/>
				<path d="M111.602,252.829c0,1.242,1.007,2.248,2.248,2.248s2.248-1.007,2.248-2.248c0-1.242-1.007-2.248-2.248-2.248
					S111.602,251.587,111.602,252.829z"/>
				<path d="M112.112,224.938c0,1.242,1.007,2.248,2.248,2.248c1.242,0,2.248-1.007,2.248-2.248c0-1.242-1.007-2.248-2.248-2.248
					C113.119,222.69,112.112,223.696,112.112,224.938z"/>
				<path d="M72.581,254.69c0,1.242,1.007,2.248,2.248,2.248s2.248-1.007,2.248-2.248c0-1.242-1.007-2.248-2.248-2.248
					S72.581,253.448,72.581,254.69z"/>
				<path d="M124.719,243.678c0,1.242,1.007,2.248,2.248,2.248s2.248-1.007,2.248-2.248c0-1.242-1.007-2.248-2.248-2.248
					S124.719,242.436,124.719,243.678z"/>
				<path d="M123.542,182.144c0,1.242,1.007,2.248,2.248,2.248c1.242,0,2.248-1.007,2.248-2.248c0-1.242-1.007-2.248-2.248-2.248
					C124.548,179.896,123.542,180.903,123.542,182.144z"/>
				<path d="M151.326,135.978c0,1.242,1.007,2.248,2.248,2.248c1.242,0,2.248-1.007,2.248-2.248c0-1.242-1.007-2.248-2.248-2.248
					C152.333,133.73,151.326,134.736,151.326,135.978z"/>
				<path d="M204.929,72.751c0,1.242,1.007,2.248,2.248,2.248c1.242,0,2.248-1.007,2.248-2.248s-1.007-2.248-2.248-2.248
					C205.936,70.502,204.929,71.509,204.929,72.751z"/>
				<path d="M187.261,48.34c0,1.242,1.007,2.248,2.248,2.248c1.242,0,2.248-1.007,2.248-2.248c0-1.242-1.007-2.248-2.248-2.248
					C188.267,46.092,187.261,47.099,187.261,48.34z"/>
				<path d="M194.163,82.761c0,1.242,1.007,2.248,2.248,2.248c1.242,0,2.248-1.007,2.248-2.248c0-1.242-1.007-2.248-2.248-2.248
					C195.169,80.513,194.163,81.519,194.163,82.761z"/>
			</g>
		</g>
		<circle cx="316.003" cy="95.518" r="2.248"/>
		<path d="M252.613,175.336c0,1.242-1.007,2.248-2.248,2.248c-1.242,0-2.248-1.007-2.248-2.248c0-1.242,1.007-2.248,2.248-2.248
			C251.606,173.087,252.613,174.094,252.613,175.336z"/>
		<path d="M233.147,296.38c0,0.393-0.319,0.712-0.712,0.712c-0.394,0-0.712-0.319-0.712-0.712c0-0.393,0.319-0.712,0.712-0.712
			C232.828,295.668,233.147,295.987,233.147,296.38z"/>
		<path d="M234.572,282.844c0,0.393-0.319,0.712-0.712,0.712c-0.393,0-0.712-0.319-0.712-0.712s0.319-0.712,0.712-0.712
			C234.253,282.131,234.572,282.45,234.572,282.844z"/>
		<path d="M240.143,270.81c0,0.393-0.319,0.712-0.712,0.712c-0.394,0-0.713-0.319-0.713-0.712c0-0.393,0.319-0.712,0.713-0.712
			C239.824,270.098,240.143,270.417,240.143,270.81z"/>
		<line style="fill:none;stroke:#000000;stroke-miterlimit:10;" x1="250.645" y1="135.954" x2="250.645" y2="113.549"/>
		<path d="M252.753,135.954c0,1.242-1.007,2.248-2.248,2.248c-1.242,0-2.248-1.007-2.248-2.248c0-1.242,1.007-2.248,2.248-2.248
			C251.746,133.706,252.753,134.713,252.753,135.954z"/>
		<path style="fill:none;stroke:#000000;stroke-miterlimit:10;" d="M238.07,281.867c-2.25-3.497-3.078-7.88-2.259-11.957
			c0.819-4.077,3.275-7.8,6.701-10.157"/>
		<path style="fill:none;stroke:#000000;stroke-miterlimit:10;" d="M235.407,293.532c-3.283-2.75-5.255-7.001-5.233-11.283
			c0.022-4.282,2.037-8.513,5.347-11.23"/>
		<path style="fill:none;stroke:#000000;stroke-miterlimit:10;" d="M236.561,305.541c-3.68-1.965-6.51-5.466-7.66-9.476
			c-1.15-4.011-0.605-8.479,1.475-12.095"/>
		<path d="M267.691,296.38c0,0.393,0.319,0.712,0.712,0.712s0.712-0.319,0.712-0.712c0-0.393-0.319-0.712-0.712-0.712
			S267.691,295.987,267.691,296.38z"/>
		<circle cx="266.978" cy="282.844" r="0.712"/>
		<path d="M260.695,270.81c0,0.393,0.319,0.712,0.712,0.712c0.393,0,0.712-0.319,0.712-0.712c0-0.393-0.319-0.712-0.712-0.712
			C261.014,270.098,260.695,270.417,260.695,270.81z"/>
		<path style="fill:none;stroke:#000000;stroke-miterlimit:10;" d="M255.696,269.096c2.346-3.967,3.131-8.83,2.154-13.334
			c-0.977-4.504-3.598-8.604-7.376-11.243c-3.779,2.639-6.509,6.739-7.486,11.243c-0.977,4.504-0.191,9.367,2.154,13.334"/>
		<path style="fill:none;stroke:#000000;stroke-miterlimit:10;" d="M262.768,281.867c2.25-3.497,3.078-7.88,2.259-11.957
			c-0.819-4.077-3.276-7.8-6.701-10.157"/>
		<path style="fill:none;stroke:#000000;stroke-miterlimit:10;" d="M265.431,293.532c3.283-2.75,5.255-7.001,5.233-11.283
			c-0.022-4.282-2.037-8.513-5.348-11.23"/>
		<path style="fill:none;stroke:#000000;stroke-miterlimit:10;" d="M264.278,305.541c3.681-1.965,6.51-5.466,7.66-9.476
			c1.15-4.011,0.605-8.479-1.475-12.095"/>
		<path style="fill:none;stroke:#000000;stroke-miterlimit:10;" d="M234.856,332.653c0,0-11.977,24.961,14.705,44.618
			c0,0,27.982-15.904,16.836-44.338"/>
		<line style="fill:none;stroke:#000000;stroke-miterlimit:10;" x1="250.129" y1="366.559" x2="250.427" y2="333.713"/>
		<line style="fill:none;stroke:#000000;stroke-miterlimit:10;" x1="250.364" y1="414.398" x2="250.364" y2="396.16"/>
	</g>
</g>
</svg>
